ISO-10303-21;
HEADER;
/* Generated by software containing ST-Developer
 * from STEP Tools, Inc. (www.steptools.com) 
 */

FILE_DESCRIPTION(
/* description */ (''),
/* implementation_level */ '2;1');

FILE_NAME(
/* name */ 'CD43NP-4R7MC.step',
/* time_stamp */ '2024-11-12T14:33:32+02:00',
/* author */ (''),
/* organization */ (''),
/* preprocessor_version */ 'ST-DEVELOPER v20',
/* originating_system */ 'Autodesk Translation Framework v13.20.0.188',

/* authorisation */ '');

FILE_SCHEMA (('AUTOMOTIVE_DESIGN { 1 0 10303 214 3 1 1 }'));
ENDSEC;

DATA;
#10=MECHANICAL_DESIGN_GEOMETRIC_PRESENTATION_REPRESENTATION('',(#33,#34,
#35,#36,#37,#38,#39,#40,#41,#42,#43,#44,#45,#46,#47,#48,#49,#50,#51,#52,
#53,#54,#55,#56),#2006);
#11=SHAPE_REPRESENTATION_RELATIONSHIP('SRR','None',#2013,#12);
#12=ADVANCED_BREP_SHAPE_REPRESENTATION('',(#57,#58,#59,#60,#61,#62,#63,
#64,#65,#66,#67,#68,#69,#70,#71,#72,#73,#74,#75,#76,#77,#78),#2005);
#13=TOROIDAL_SURFACE('',#1196,1.86696317442557,0.0375);
#14=TOROIDAL_SURFACE('',#1199,1.86696317442557,0.0375);
#15=TOROIDAL_SURFACE('',#1202,1.86696317442557,0.0375);
#16=TOROIDAL_SURFACE('',#1205,1.86696317442557,0.0375);
#17=TOROIDAL_SURFACE('',#1208,1.86696317442557,0.0375);
#18=TOROIDAL_SURFACE('',#1211,1.86696317442557,0.0375);
#19=TOROIDAL_SURFACE('',#1214,1.86696317442557,0.0375);
#20=TOROIDAL_SURFACE('',#1217,1.86696317442557,0.0375);
#21=TOROIDAL_SURFACE('',#1220,1.86696317442557,0.0375);
#22=TOROIDAL_SURFACE('',#1223,1.86696317442557,0.0375);
#23=TOROIDAL_SURFACE('',#1226,1.86696317442557,0.0375);
#24=TOROIDAL_SURFACE('',#1229,1.86696317442557,0.0375);
#25=TOROIDAL_SURFACE('',#1232,1.86696317442557,0.0375);
#26=TOROIDAL_SURFACE('',#1235,1.86696317442557,0.0375);
#27=TOROIDAL_SURFACE('',#1238,1.86696317442557,0.0375);
#28=TOROIDAL_SURFACE('',#1241,1.86696317442557,0.0375);
#29=TOROIDAL_SURFACE('',#1244,1.86696317442557,0.0375);
#30=TOROIDAL_SURFACE('',#1247,1.86696317442557,0.0375);
#31=TOROIDAL_SURFACE('',#1250,1.86696317442557,0.0375);
#32=TOROIDAL_SURFACE('',#1253,1.86696317442557,0.0375);
#33=STYLED_ITEM('',(#2022),#57);
#34=STYLED_ITEM('',(#2023),#58);
#35=STYLED_ITEM('',(#2023),#59);
#36=STYLED_ITEM('',(#2023),#60);
#37=STYLED_ITEM('',(#2023),#61);
#38=STYLED_ITEM('',(#2023),#62);
#39=STYLED_ITEM('',(#2023),#63);
#40=STYLED_ITEM('',(#2023),#64);
#41=STYLED_ITEM('',(#2023),#65);
#42=STYLED_ITEM('',(#2023),#66);
#43=STYLED_ITEM('',(#2023),#67);
#44=STYLED_ITEM('',(#2023),#68);
#45=STYLED_ITEM('',(#2023),#69);
#46=STYLED_ITEM('',(#2023),#70);
#47=STYLED_ITEM('',(#2023),#71);
#48=STYLED_ITEM('',(#2023),#72);
#49=STYLED_ITEM('',(#2023),#73);
#50=STYLED_ITEM('',(#2023),#74);
#51=STYLED_ITEM('',(#2023),#75);
#52=STYLED_ITEM('',(#2023),#76);
#53=STYLED_ITEM('',(#2023),#77);
#54=STYLED_ITEM('',(#2025),#1110);
#55=STYLED_ITEM('',(#2025),#1111);
#56=STYLED_ITEM('',(#2024),#78);
#57=MANIFOLD_SOLID_BREP('Body1',#1125);
#58=MANIFOLD_SOLID_BREP('Body2',#1126);
#59=MANIFOLD_SOLID_BREP('Body3',#1127);
#60=MANIFOLD_SOLID_BREP('Body4',#1128);
#61=MANIFOLD_SOLID_BREP('Body5',#1129);
#62=MANIFOLD_SOLID_BREP('Body6',#1130);
#63=MANIFOLD_SOLID_BREP('Body7',#1131);
#64=MANIFOLD_SOLID_BREP('Body8',#1132);
#65=MANIFOLD_SOLID_BREP('Body9',#1133);
#66=MANIFOLD_SOLID_BREP('Body10',#1134);
#67=MANIFOLD_SOLID_BREP('Body11',#1135);
#68=MANIFOLD_SOLID_BREP('Body12',#1136);
#69=MANIFOLD_SOLID_BREP('Body13',#1137);
#70=MANIFOLD_SOLID_BREP('Body14',#1138);
#71=MANIFOLD_SOLID_BREP('Body15',#1139);
#72=MANIFOLD_SOLID_BREP('Body16',#1140);
#73=MANIFOLD_SOLID_BREP('Body17',#1141);
#74=MANIFOLD_SOLID_BREP('Body18',#1142);
#75=MANIFOLD_SOLID_BREP('Body19',#1143);
#76=MANIFOLD_SOLID_BREP('Body20',#1144);
#77=MANIFOLD_SOLID_BREP('Body21',#1145);
#78=MANIFOLD_SOLID_BREP('Body22',#1146);
#79=CONICAL_SURFACE('',#1174,2.15,0.785398163397448);
#80=CONICAL_SURFACE('',#1176,2.15,0.785398163397448);
#81=CONICAL_SURFACE('',#1189,2.15,0.785398163397448);
#82=CONICAL_SURFACE('',#1190,2.15,0.785398163397448);
#83=B_SPLINE_CURVE_WITH_KNOTS('',3,(#1723,#1724,#1725,#1726),
 .UNSPECIFIED.,.F.,.F.,(4,4),(0.,0.0286974322891021),.UNSPECIFIED.);
#84=B_SPLINE_CURVE_WITH_KNOTS('',3,(#1727,#1728,#1729,#1730),
 .UNSPECIFIED.,.F.,.F.,(4,4),(0.,0.0286974322891011),.UNSPECIFIED.);
#85=B_SPLINE_CURVE_WITH_KNOTS('',3,(#1735,#1736,#1737,#1738),
 .UNSPECIFIED.,.F.,.F.,(4,4),(0.,0.0286974322891289),.UNSPECIFIED.);
#86=B_SPLINE_CURVE_WITH_KNOTS('',3,(#1740,#1741,#1742,#1743),
 .UNSPECIFIED.,.F.,.F.,(4,4),(0.,0.0286974322891338),.UNSPECIFIED.);
#87=CIRCLE('',#1163,2.25);
#88=CIRCLE('',#1164,2.25);
#89=CIRCLE('',#1166,2.05);
#90=CIRCLE('',#1167,2.05);
#91=CIRCLE('',#1168,0.249999999999999);
#92=CIRCLE('',#1169,2.05);
#93=CIRCLE('',#1170,2.05);
#94=CIRCLE('',#1171,0.249999999999999);
#95=CIRCLE('',#1177,2.25);
#96=CIRCLE('',#1179,2.25);
#97=CIRCLE('',#1181,0.249999999999999);
#98=CIRCLE('',#1183,2.25);
#99=CIRCLE('',#1184,2.25);
#100=CIRCLE('',#1186,2.25);
#101=CIRCLE('',#1187,2.25);
#102=CIRCLE('',#1193,0.249999999999999);
#103=CIRCLE('',#1197,0.0375);
#104=CIRCLE('',#1198,1.82946317442557);
#105=CIRCLE('',#1200,0.0375);
#106=CIRCLE('',#1201,1.82946317442557);
#107=CIRCLE('',#1203,0.0375);
#108=CIRCLE('',#1204,1.82946317442557);
#109=CIRCLE('',#1206,0.0375);
#110=CIRCLE('',#1207,1.82946317442557);
#111=CIRCLE('',#1209,0.0375);
#112=CIRCLE('',#1210,1.82946317442557);
#113=CIRCLE('',#1212,0.0375);
#114=CIRCLE('',#1213,1.82946317442557);
#115=CIRCLE('',#1215,0.0375);
#116=CIRCLE('',#1216,1.82946317442557);
#117=CIRCLE('',#1218,0.0375);
#118=CIRCLE('',#1219,1.82946317442557);
#119=CIRCLE('',#1221,0.0375);
#120=CIRCLE('',#1222,1.82946317442557);
#121=CIRCLE('',#1224,0.0375);
#122=CIRCLE('',#1225,1.82946317442557);
#123=CIRCLE('',#1227,0.0375);
#124=CIRCLE('',#1228,1.82946317442557);
#125=CIRCLE('',#1230,0.0375);
#126=CIRCLE('',#1231,1.82946317442557);
#127=CIRCLE('',#1233,0.0375);
#128=CIRCLE('',#1234,1.82946317442557);
#129=CIRCLE('',#1236,0.0375);
#130=CIRCLE('',#1237,1.82946317442557);
#131=CIRCLE('',#1239,0.0375);
#132=CIRCLE('',#1240,1.82946317442557);
#133=CIRCLE('',#1242,0.0375);
#134=CIRCLE('',#1243,1.82946317442557);
#135=CIRCLE('',#1245,0.0375);
#136=CIRCLE('',#1246,1.82946317442557);
#137=CIRCLE('',#1248,0.0375);
#138=CIRCLE('',#1249,1.82946317442557);
#139=CIRCLE('',#1251,0.0375);
#140=CIRCLE('',#1252,1.82946317442557);
#141=CIRCLE('',#1254,0.0375);
#142=CIRCLE('',#1255,1.82946317442557);
#143=CIRCLE('',#1257,1.82388189831139);
#144=CIRCLE('',#1258,0.249999999999999);
#145=CIRCLE('',#1259,1.82388189831139);
#146=CIRCLE('',#1260,0.249999999999999);
#147=CIRCLE('',#1263,0.249999999999999);
#148=CIRCLE('',#1268,1.82388189831139);
#149=CIRCLE('',#1269,1.82388189831139);
#150=CIRCLE('',#1271,1.82388189831139);
#151=CIRCLE('',#1272,2.25);
#152=CIRCLE('',#1274,2.25);
#153=CIRCLE('',#1275,1.82388189831139);
#154=CIRCLE('',#1279,2.25);
#155=CIRCLE('',#1280,0.249999999999999);
#156=CIRCLE('',#1281,2.25);
#157=CIRCLE('',#1283,2.25);
#158=CIRCLE('',#1284,2.25);
#159=CIRCLE('',#1288,2.25);
#160=CIRCLE('',#1289,1.82388189831139);
#161=CIRCLE('',#1291,1.82388189831139);
#162=CIRCLE('',#1292,2.25);
#163=CYLINDRICAL_SURFACE('',#1162,2.25);
#164=CYLINDRICAL_SURFACE('',#1178,2.25);
#165=CYLINDRICAL_SURFACE('',#1180,0.249999999999999);
#166=CYLINDRICAL_SURFACE('',#1182,2.25);
#167=CYLINDRICAL_SURFACE('',#1185,2.25);
#168=CYLINDRICAL_SURFACE('',#1192,0.249999999999999);
#169=CYLINDRICAL_SURFACE('',#1262,0.249999999999999);
#170=CYLINDRICAL_SURFACE('',#1293,0.249999999999999);
#171=CYLINDRICAL_SURFACE('',#1296,1.82388189831139);
#172=CYLINDRICAL_SURFACE('',#1297,1.82388189831139);
#173=CYLINDRICAL_SURFACE('',#1298,2.25);
#174=CYLINDRICAL_SURFACE('',#1299,2.25);
#175=CYLINDRICAL_SURFACE('',#1300,2.25);
#176=CYLINDRICAL_SURFACE('',#1301,2.25);
#177=FACE_OUTER_BOUND('',#243,.T.);
#178=FACE_OUTER_BOUND('',#244,.T.);
#179=FACE_OUTER_BOUND('',#245,.T.);
#180=FACE_OUTER_BOUND('',#246,.T.);
#181=FACE_OUTER_BOUND('',#247,.T.);
#182=FACE_OUTER_BOUND('',#248,.T.);
#183=FACE_OUTER_BOUND('',#249,.T.);
#184=FACE_OUTER_BOUND('',#250,.T.);
#185=FACE_OUTER_BOUND('',#251,.T.);
#186=FACE_OUTER_BOUND('',#252,.T.);
#187=FACE_OUTER_BOUND('',#253,.T.);
#188=FACE_OUTER_BOUND('',#254,.T.);
#189=FACE_OUTER_BOUND('',#255,.T.);
#190=FACE_OUTER_BOUND('',#256,.T.);
#191=FACE_OUTER_BOUND('',#257,.T.);
#192=FACE_OUTER_BOUND('',#258,.T.);
#193=FACE_OUTER_BOUND('',#259,.T.);
#194=FACE_OUTER_BOUND('',#260,.T.);
#195=FACE_OUTER_BOUND('',#261,.T.);
#196=FACE_OUTER_BOUND('',#262,.T.);
#197=FACE_OUTER_BOUND('',#263,.T.);
#198=FACE_OUTER_BOUND('',#264,.T.);
#199=FACE_OUTER_BOUND('',#265,.T.);
#200=FACE_OUTER_BOUND('',#266,.T.);
#201=FACE_OUTER_BOUND('',#267,.T.);
#202=FACE_OUTER_BOUND('',#268,.T.);
#203=FACE_OUTER_BOUND('',#269,.T.);
#204=FACE_OUTER_BOUND('',#270,.T.);
#205=FACE_OUTER_BOUND('',#271,.T.);
#206=FACE_OUTER_BOUND('',#272,.T.);
#207=FACE_OUTER_BOUND('',#273,.T.);
#208=FACE_OUTER_BOUND('',#274,.T.);
#209=FACE_OUTER_BOUND('',#275,.T.);
#210=FACE_OUTER_BOUND('',#276,.T.);
#211=FACE_OUTER_BOUND('',#277,.T.);
#212=FACE_OUTER_BOUND('',#278,.T.);
#213=FACE_OUTER_BOUND('',#279,.T.);
#214=FACE_OUTER_BOUND('',#280,.T.);
#215=FACE_OUTER_BOUND('',#281,.T.);
#216=FACE_OUTER_BOUND('',#282,.T.);
#217=FACE_OUTER_BOUND('',#283,.T.);
#218=FACE_OUTER_BOUND('',#284,.T.);
#219=FACE_OUTER_BOUND('',#285,.T.);
#220=FACE_OUTER_BOUND('',#286,.T.);
#221=FACE_OUTER_BOUND('',#287,.T.);
#222=FACE_OUTER_BOUND('',#288,.T.);
#223=FACE_OUTER_BOUND('',#289,.T.);
#224=FACE_OUTER_BOUND('',#290,.T.);
#225=FACE_OUTER_BOUND('',#291,.T.);
#226=FACE_OUTER_BOUND('',#292,.T.);
#227=FACE_OUTER_BOUND('',#293,.T.);
#228=FACE_OUTER_BOUND('',#294,.T.);
#229=FACE_OUTER_BOUND('',#295,.T.);
#230=FACE_OUTER_BOUND('',#296,.T.);
#231=FACE_OUTER_BOUND('',#297,.T.);
#232=FACE_OUTER_BOUND('',#298,.T.);
#233=FACE_OUTER_BOUND('',#299,.T.);
#234=FACE_OUTER_BOUND('',#300,.T.);
#235=FACE_OUTER_BOUND('',#301,.T.);
#236=FACE_OUTER_BOUND('',#302,.T.);
#237=FACE_OUTER_BOUND('',#303,.T.);
#238=FACE_OUTER_BOUND('',#304,.T.);
#239=FACE_OUTER_BOUND('',#305,.T.);
#240=FACE_OUTER_BOUND('',#306,.T.);
#241=FACE_OUTER_BOUND('',#307,.T.);
#242=FACE_OUTER_BOUND('',#308,.T.);
#243=EDGE_LOOP('',(#715,#716,#717,#718,#719));
#244=EDGE_LOOP('',(#720,#721,#722,#723));
#245=EDGE_LOOP('',(#724,#725,#726,#727));
#246=EDGE_LOOP('',(#728,#729,#730,#731,#732,#733,#734,#735,#736,#737,#738,
#739));
#247=EDGE_LOOP('',(#740,#741,#742,#743));
#248=EDGE_LOOP('',(#744,#745,#746,#747));
#249=EDGE_LOOP('',(#748,#749,#750,#751));
#250=EDGE_LOOP('',(#752,#753,#754,#755));
#251=EDGE_LOOP('',(#756,#757,#758,#759));
#252=EDGE_LOOP('',(#760,#761,#762,#763));
#253=EDGE_LOOP('',(#764,#765,#766,#767));
#254=EDGE_LOOP('',(#768,#769,#770,#771));
#255=EDGE_LOOP('',(#772,#773,#774,#775));
#256=EDGE_LOOP('',(#776,#777,#778,#779,#780));
#257=EDGE_LOOP('',(#781,#782,#783,#784));
#258=EDGE_LOOP('',(#785,#786,#787,#788));
#259=EDGE_LOOP('',(#789,#790,#791,#792,#793));
#260=EDGE_LOOP('',(#794,#795,#796,#797));
#261=EDGE_LOOP('',(#798,#799,#800,#801,#802));
#262=EDGE_LOOP('',(#803,#804,#805,#806,#807,#808,#809,#810,#811,#812,#813,
#814));
#263=EDGE_LOOP('',(#815,#816,#817,#818));
#264=EDGE_LOOP('',(#819,#820,#821,#822));
#265=EDGE_LOOP('',(#823,#824,#825,#826));
#266=EDGE_LOOP('',(#827,#828,#829,#830));
#267=EDGE_LOOP('',(#831,#832,#833,#834));
#268=EDGE_LOOP('',(#835,#836,#837,#838));
#269=EDGE_LOOP('',(#839,#840,#841,#842));
#270=EDGE_LOOP('',(#843,#844,#845,#846));
#271=EDGE_LOOP('',(#847,#848,#849,#850));
#272=EDGE_LOOP('',(#851,#852,#853,#854));
#273=EDGE_LOOP('',(#855,#856,#857,#858));
#274=EDGE_LOOP('',(#859,#860,#861,#862));
#275=EDGE_LOOP('',(#863,#864,#865,#866));
#276=EDGE_LOOP('',(#867,#868,#869,#870));
#277=EDGE_LOOP('',(#871,#872,#873,#874));
#278=EDGE_LOOP('',(#875,#876,#877,#878));
#279=EDGE_LOOP('',(#879,#880,#881,#882));
#280=EDGE_LOOP('',(#883,#884,#885,#886));
#281=EDGE_LOOP('',(#887,#888,#889,#890));
#282=EDGE_LOOP('',(#891,#892,#893,#894));
#283=EDGE_LOOP('',(#895,#896,#897,#898,#899,#900,#901,#902));
#284=EDGE_LOOP('',(#903,#904,#905,#906,#907,#908));
#285=EDGE_LOOP('',(#909,#910,#911,#912));
#286=EDGE_LOOP('',(#913,#914,#915,#916,#917,#918));
#287=EDGE_LOOP('',(#919,#920,#921,#922,#923,#924));
#288=EDGE_LOOP('',(#925,#926,#927,#928,#929,#930));
#289=EDGE_LOOP('',(#931,#932,#933,#934));
#290=EDGE_LOOP('',(#935,#936,#937,#938,#939));
#291=EDGE_LOOP('',(#940,#941,#942,#943,#944));
#292=EDGE_LOOP('',(#945,#946,#947,#948));
#293=EDGE_LOOP('',(#949,#950,#951,#952));
#294=EDGE_LOOP('',(#953,#954,#955,#956,#957,#958,#959,#960));
#295=EDGE_LOOP('',(#961,#962,#963,#964,#965,#966,#967,#968));
#296=EDGE_LOOP('',(#969,#970,#971,#972));
#297=EDGE_LOOP('',(#973,#974,#975,#976));
#298=EDGE_LOOP('',(#977,#978,#979,#980,#981));
#299=EDGE_LOOP('',(#982,#983,#984,#985,#986));
#300=EDGE_LOOP('',(#987,#988,#989,#990));
#301=EDGE_LOOP('',(#991,#992,#993,#994,#995,#996));
#302=EDGE_LOOP('',(#997,#998,#999,#1000,#1001,#1002));
#303=EDGE_LOOP('',(#1003,#1004,#1005,#1006,#1007,#1008));
#304=EDGE_LOOP('',(#1009,#1010,#1011,#1012,#1013,#1014));
#305=EDGE_LOOP('',(#1015,#1016,#1017,#1018));
#306=EDGE_LOOP('',(#1019,#1020,#1021,#1022));
#307=EDGE_LOOP('',(#1023,#1024,#1025,#1026));
#308=EDGE_LOOP('',(#1027,#1028,#1029,#1030));
#309=(
BOUNDED_CURVE()
B_SPLINE_CURVE(2,(#1672,#1673,#1674),.UNSPECIFIED.,.F.,.F.)
B_SPLINE_CURVE_WITH_KNOTS((3,3),(0.,0.028381238462115),.UNSPECIFIED.)
CURVE()
GEOMETRIC_REPRESENTATION_ITEM()
RATIONAL_B_SPLINE_CURVE((1.,1.00109833107412,1.))
REPRESENTATION_ITEM('')
);
#310=(
BOUNDED_CURVE()
B_SPLINE_CURVE(2,(#1732,#1733,#1734),.UNSPECIFIED.,.F.,.F.)
B_SPLINE_CURVE_WITH_KNOTS((3,3),(0.,0.028381238462115),.UNSPECIFIED.)
CURVE()
GEOMETRIC_REPRESENTATION_ITEM()
RATIONAL_B_SPLINE_CURVE((1.,1.00109833110112,1.))
REPRESENTATION_ITEM('')
);
#311=(
BOUNDED_CURVE()
B_SPLINE_CURVE(2,(#1746,#1747,#1748),.UNSPECIFIED.,.F.,.F.)
B_SPLINE_CURVE_WITH_KNOTS((3,3),(0.,0.028381238462115),.UNSPECIFIED.)
CURVE()
GEOMETRIC_REPRESENTATION_ITEM()
RATIONAL_B_SPLINE_CURVE((1.,1.0010983311489,1.))
REPRESENTATION_ITEM('')
);
#312=(
BOUNDED_CURVE()
B_SPLINE_CURVE(2,(#1769,#1770,#1771),.UNSPECIFIED.,.F.,.F.)
B_SPLINE_CURVE_WITH_KNOTS((3,3),(0.,0.028381238462115),.UNSPECIFIED.)
CURVE()
GEOMETRIC_REPRESENTATION_ITEM()
RATIONAL_B_SPLINE_CURVE((1.,1.00109833102719,1.))
REPRESENTATION_ITEM('')
);
#313=LINE('',#1666,#387);
#314=LINE('',#1668,#388);
#315=LINE('',#1670,#389);
#316=LINE('',#1675,#390);
#317=LINE('',#1679,#391);
#318=LINE('',#1681,#392);
#319=LINE('',#1683,#393);
#320=LINE('',#1684,#394);
#321=LINE('',#1688,#395);
#322=LINE('',#1694,#396);
#323=LINE('',#1698,#397);
#324=LINE('',#1702,#398);
#325=LINE('',#1706,#399);
#326=LINE('',#1710,#400);
#327=LINE('',#1716,#401);
#328=LINE('',#1718,#402);
#329=LINE('',#1720,#403);
#330=LINE('',#1721,#404);
#331=LINE('',#1752,#405);
#332=LINE('',#1757,#406);
#333=LINE('',#1761,#407);
#334=LINE('',#1768,#408);
#335=LINE('',#1776,#409);
#336=LINE('',#1777,#410);
#337=LINE('',#1781,#411);
#338=LINE('',#1783,#412);
#339=LINE('',#1868,#413);
#340=LINE('',#1872,#414);
#341=LINE('',#1876,#415);
#342=LINE('',#1880,#416);
#343=LINE('',#1884,#417);
#344=LINE('',#1886,#418);
#345=LINE('',#1888,#419);
#346=LINE('',#1890,#420);
#347=LINE('',#1891,#421);
#348=LINE('',#1894,#422);
#349=LINE('',#1898,#423);
#350=LINE('',#1900,#424);
#351=LINE('',#1902,#425);
#352=LINE('',#1903,#426);
#353=LINE('',#1907,#427);
#354=LINE('',#1909,#428);
#355=LINE('',#1911,#429);
#356=LINE('',#1913,#430);
#357=LINE('',#1915,#431);
#358=LINE('',#1916,#432);
#359=LINE('',#1920,#433);
#360=LINE('',#1922,#434);
#361=LINE('',#1924,#435);
#362=LINE('',#1926,#436);
#363=LINE('',#1928,#437);
#364=LINE('',#1929,#438);
#365=LINE('',#1937,#439);
#366=LINE('',#1940,#440);
#367=LINE('',#1943,#441);
#368=LINE('',#1948,#442);
#369=LINE('',#1949,#443);
#370=LINE('',#1952,#444);
#371=LINE('',#1953,#445);
#372=LINE('',#1958,#446);
#373=LINE('',#1962,#447);
#374=LINE('',#1965,#448);
#375=LINE('',#1968,#449);
#376=LINE('',#1973,#450);
#377=LINE('',#1974,#451);
#378=LINE('',#1977,#452);
#379=LINE('',#1978,#453);
#380=LINE('',#1983,#454);
#381=LINE('',#1989,#455);
#382=LINE('',#1990,#456);
#383=LINE('',#1992,#457);
#384=LINE('',#1993,#458);
#385=LINE('',#1995,#459);
#386=LINE('',#1996,#460);
#387=VECTOR('',#1306,10.);
#388=VECTOR('',#1307,10.);
#389=VECTOR('',#1308,10.);
#390=VECTOR('',#1309,10.);
#391=VECTOR('',#1312,10.);
#392=VECTOR('',#1313,10.);
#393=VECTOR('',#1314,10.);
#394=VECTOR('',#1315,10.);
#395=VECTOR('',#1318,10.);
#396=VECTOR('',#1325,10.);
#397=VECTOR('',#1328,10.);
#398=VECTOR('',#1331,10.);
#399=VECTOR('',#1334,10.);
#400=VECTOR('',#1337,10.);
#401=VECTOR('',#1344,10.);
#402=VECTOR('',#1345,10.);
#403=VECTOR('',#1346,10.);
#404=VECTOR('',#1347,10.);
#405=VECTOR('',#1360,10.);
#406=VECTOR('',#1367,10.);
#407=VECTOR('',#1370,10.);
#408=VECTOR('',#1383,10.);
#409=VECTOR('',#1390,10.);
#410=VECTOR('',#1391,10.);
#411=VECTOR('',#1396,10.);
#412=VECTOR('',#1399,10.);
#413=VECTOR('',#1524,10.);
#414=VECTOR('',#1527,10.);
#415=VECTOR('',#1530,10.);
#416=VECTOR('',#1533,10.);
#417=VECTOR('',#1538,10.);
#418=VECTOR('',#1539,10.);
#419=VECTOR('',#1540,10.);
#420=VECTOR('',#1541,10.);
#421=VECTOR('',#1542,10.);
#422=VECTOR('',#1545,10.);
#423=VECTOR('',#1550,10.);
#424=VECTOR('',#1551,10.);
#425=VECTOR('',#1552,10.);
#426=VECTOR('',#1553,10.);
#427=VECTOR('',#1556,10.);
#428=VECTOR('',#1557,10.);
#429=VECTOR('',#1558,10.);
#430=VECTOR('',#1559,10.);
#431=VECTOR('',#1560,10.);
#432=VECTOR('',#1561,10.);
#433=VECTOR('',#1564,10.);
#434=VECTOR('',#1565,10.);
#435=VECTOR('',#1566,10.);
#436=VECTOR('',#1567,10.);
#437=VECTOR('',#1568,10.);
#438=VECTOR('',#1569,10.);
#439=VECTOR('',#1580,10.);
#440=VECTOR('',#1583,10.);
#441=VECTOR('',#1586,10.);
#442=VECTOR('',#1593,10.);
#443=VECTOR('',#1594,10.);
#444=VECTOR('',#1597,10.);
#445=VECTOR('',#1598,10.);
#446=VECTOR('',#1603,10.);
#447=VECTOR('',#1606,10.);
#448=VECTOR('',#1609,10.);
#449=VECTOR('',#1612,10.);
#450=VECTOR('',#1619,10.);
#451=VECTOR('',#1620,10.);
#452=VECTOR('',#1623,10.);
#453=VECTOR('',#1624,10.);
#454=VECTOR('',#1629,10.);
#455=VECTOR('',#1640,10.);
#456=VECTOR('',#1641,10.);
#457=VECTOR('',#1644,10.);
#458=VECTOR('',#1645,10.);
#459=VECTOR('',#1648,10.);
#460=VECTOR('',#1649,10.);
#461=VERTEX_POINT('',#1664);
#462=VERTEX_POINT('',#1665);
#463=VERTEX_POINT('',#1667);
#464=VERTEX_POINT('',#1669);
#465=VERTEX_POINT('',#1671);
#466=VERTEX_POINT('',#1677);
#467=VERTEX_POINT('',#1678);
#468=VERTEX_POINT('',#1680);
#469=VERTEX_POINT('',#1682);
#470=VERTEX_POINT('',#1686);
#471=VERTEX_POINT('',#1687);
#472=VERTEX_POINT('',#1692);
#473=VERTEX_POINT('',#1693);
#474=VERTEX_POINT('',#1695);
#475=VERTEX_POINT('',#1697);
#476=VERTEX_POINT('',#1699);
#477=VERTEX_POINT('',#1701);
#478=VERTEX_POINT('',#1703);
#479=VERTEX_POINT('',#1705);
#480=VERTEX_POINT('',#1707);
#481=VERTEX_POINT('',#1709);
#482=VERTEX_POINT('',#1714);
#483=VERTEX_POINT('',#1715);
#484=VERTEX_POINT('',#1717);
#485=VERTEX_POINT('',#1719);
#486=VERTEX_POINT('',#1745);
#487=VERTEX_POINT('',#1751);
#488=VERTEX_POINT('',#1755);
#489=VERTEX_POINT('',#1759);
#490=VERTEX_POINT('',#1760);
#491=VERTEX_POINT('',#1775);
#492=VERTEX_POINT('',#1779);
#493=VERTEX_POINT('',#1786);
#494=VERTEX_POINT('',#1790);
#495=VERTEX_POINT('',#1794);
#496=VERTEX_POINT('',#1798);
#497=VERTEX_POINT('',#1802);
#498=VERTEX_POINT('',#1806);
#499=VERTEX_POINT('',#1810);
#500=VERTEX_POINT('',#1814);
#501=VERTEX_POINT('',#1818);
#502=VERTEX_POINT('',#1822);
#503=VERTEX_POINT('',#1826);
#504=VERTEX_POINT('',#1830);
#505=VERTEX_POINT('',#1834);
#506=VERTEX_POINT('',#1838);
#507=VERTEX_POINT('',#1842);
#508=VERTEX_POINT('',#1846);
#509=VERTEX_POINT('',#1850);
#510=VERTEX_POINT('',#1854);
#511=VERTEX_POINT('',#1858);
#512=VERTEX_POINT('',#1862);
#513=VERTEX_POINT('',#1866);
#514=VERTEX_POINT('',#1867);
#515=VERTEX_POINT('',#1869);
#516=VERTEX_POINT('',#1871);
#517=VERTEX_POINT('',#1873);
#518=VERTEX_POINT('',#1875);
#519=VERTEX_POINT('',#1877);
#520=VERTEX_POINT('',#1879);
#521=VERTEX_POINT('',#1883);
#522=VERTEX_POINT('',#1885);
#523=VERTEX_POINT('',#1887);
#524=VERTEX_POINT('',#1889);
#525=VERTEX_POINT('',#1893);
#526=VERTEX_POINT('',#1897);
#527=VERTEX_POINT('',#1899);
#528=VERTEX_POINT('',#1901);
#529=VERTEX_POINT('',#1905);
#530=VERTEX_POINT('',#1906);
#531=VERTEX_POINT('',#1908);
#532=VERTEX_POINT('',#1910);
#533=VERTEX_POINT('',#1912);
#534=VERTEX_POINT('',#1914);
#535=VERTEX_POINT('',#1918);
#536=VERTEX_POINT('',#1919);
#537=VERTEX_POINT('',#1921);
#538=VERTEX_POINT('',#1923);
#539=VERTEX_POINT('',#1925);
#540=VERTEX_POINT('',#1927);
#541=VERTEX_POINT('',#1934);
#542=VERTEX_POINT('',#1936);
#543=VERTEX_POINT('',#1938);
#544=VERTEX_POINT('',#1942);
#545=VERTEX_POINT('',#1947);
#546=VERTEX_POINT('',#1951);
#547=VERTEX_POINT('',#1955);
#548=VERTEX_POINT('',#1957);
#549=VERTEX_POINT('',#1959);
#550=VERTEX_POINT('',#1961);
#551=VERTEX_POINT('',#1963);
#552=VERTEX_POINT('',#1967);
#553=VERTEX_POINT('',#1972);
#554=VERTEX_POINT('',#1976);
#555=VERTEX_POINT('',#1980);
#556=VERTEX_POINT('',#1982);
#557=EDGE_CURVE('',#461,#462,#313,.T.);
#558=EDGE_CURVE('',#461,#463,#314,.T.);
#559=EDGE_CURVE('',#464,#463,#315,.T.);
#560=EDGE_CURVE('',#465,#464,#309,.T.);
#561=EDGE_CURVE('',#462,#465,#316,.T.);
#562=EDGE_CURVE('',#466,#467,#317,.T.);
#563=EDGE_CURVE('',#468,#466,#318,.T.);
#564=EDGE_CURVE('',#468,#469,#319,.T.);
#565=EDGE_CURVE('',#469,#467,#320,.T.);
#566=EDGE_CURVE('',#470,#471,#321,.T.);
#567=EDGE_CURVE('',#471,#468,#87,.T.);
#568=EDGE_CURVE('',#470,#466,#88,.T.);
#569=EDGE_CURVE('',#472,#473,#322,.T.);
#570=EDGE_CURVE('',#474,#473,#89,.T.);
#571=EDGE_CURVE('',#475,#474,#323,.T.);
#572=EDGE_CURVE('',#476,#475,#90,.T.);
#573=EDGE_CURVE('',#476,#477,#324,.T.);
#574=EDGE_CURVE('',#477,#478,#91,.T.);
#575=EDGE_CURVE('',#478,#479,#325,.T.);
#576=EDGE_CURVE('',#480,#479,#92,.T.);
#577=EDGE_CURVE('',#481,#480,#326,.T.);
#578=EDGE_CURVE('',#464,#481,#93,.T.);
#579=EDGE_CURVE('',#463,#472,#94,.T.);
#580=EDGE_CURVE('',#482,#483,#327,.T.);
#581=EDGE_CURVE('',#484,#482,#328,.T.);
#582=EDGE_CURVE('',#484,#485,#329,.T.);
#583=EDGE_CURVE('',#485,#483,#330,.T.);
#584=EDGE_CURVE('',#475,#483,#83,.T.);
#585=EDGE_CURVE('',#474,#482,#84,.T.);
#586=EDGE_CURVE('',#479,#470,#310,.T.);
#587=EDGE_CURVE('',#480,#466,#85,.T.);
#588=EDGE_CURVE('',#481,#467,#86,.T.);
#589=EDGE_CURVE('',#486,#476,#311,.T.);
#590=EDGE_CURVE('',#483,#486,#95,.T.);
#591=EDGE_CURVE('',#487,#486,#331,.T.);
#592=EDGE_CURVE('',#485,#487,#96,.T.);
#593=EDGE_CURVE('',#488,#461,#97,.T.);
#594=EDGE_CURVE('',#488,#472,#332,.T.);
#595=EDGE_CURVE('',#489,#490,#333,.T.);
#596=EDGE_CURVE('',#490,#484,#98,.T.);
#597=EDGE_CURVE('',#489,#482,#99,.T.);
#598=EDGE_CURVE('',#467,#465,#100,.T.);
#599=EDGE_CURVE('',#469,#462,#101,.T.);
#600=EDGE_CURVE('',#490,#488,#334,.T.);
#601=EDGE_CURVE('',#473,#489,#312,.T.);
#602=EDGE_CURVE('',#471,#491,#335,.T.);
#603=EDGE_CURVE('',#478,#491,#336,.T.);
#604=EDGE_CURVE('',#491,#492,#102,.T.);
#605=EDGE_CURVE('',#477,#492,#337,.T.);
#606=EDGE_CURVE('',#492,#487,#338,.T.);
#607=EDGE_CURVE('',#493,#493,#103,.T.);
#608=EDGE_CURVE('',#493,#493,#104,.T.);
#609=EDGE_CURVE('',#494,#494,#105,.T.);
#610=EDGE_CURVE('',#494,#494,#106,.T.);
#611=EDGE_CURVE('',#495,#495,#107,.T.);
#612=EDGE_CURVE('',#495,#495,#108,.T.);
#613=EDGE_CURVE('',#496,#496,#109,.T.);
#614=EDGE_CURVE('',#496,#496,#110,.T.);
#615=EDGE_CURVE('',#497,#497,#111,.T.);
#616=EDGE_CURVE('',#497,#497,#112,.T.);
#617=EDGE_CURVE('',#498,#498,#113,.T.);
#618=EDGE_CURVE('',#498,#498,#114,.T.);
#619=EDGE_CURVE('',#499,#499,#115,.T.);
#620=EDGE_CURVE('',#499,#499,#116,.T.);
#621=EDGE_CURVE('',#500,#500,#117,.T.);
#622=EDGE_CURVE('',#500,#500,#118,.T.);
#623=EDGE_CURVE('',#501,#501,#119,.T.);
#624=EDGE_CURVE('',#501,#501,#120,.T.);
#625=EDGE_CURVE('',#502,#502,#121,.T.);
#626=EDGE_CURVE('',#502,#502,#122,.T.);
#627=EDGE_CURVE('',#503,#503,#123,.T.);
#628=EDGE_CURVE('',#503,#503,#124,.T.);
#629=EDGE_CURVE('',#504,#504,#125,.T.);
#630=EDGE_CURVE('',#504,#504,#126,.T.);
#631=EDGE_CURVE('',#505,#505,#127,.T.);
#632=EDGE_CURVE('',#505,#505,#128,.T.);
#633=EDGE_CURVE('',#506,#506,#129,.T.);
#634=EDGE_CURVE('',#506,#506,#130,.T.);
#635=EDGE_CURVE('',#507,#507,#131,.T.);
#636=EDGE_CURVE('',#507,#507,#132,.T.);
#637=EDGE_CURVE('',#508,#508,#133,.T.);
#638=EDGE_CURVE('',#508,#508,#134,.T.);
#639=EDGE_CURVE('',#509,#509,#135,.T.);
#640=EDGE_CURVE('',#509,#509,#136,.T.);
#641=EDGE_CURVE('',#510,#510,#137,.T.);
#642=EDGE_CURVE('',#510,#510,#138,.T.);
#643=EDGE_CURVE('',#511,#511,#139,.T.);
#644=EDGE_CURVE('',#511,#511,#140,.T.);
#645=EDGE_CURVE('',#512,#512,#141,.T.);
#646=EDGE_CURVE('',#512,#512,#142,.T.);
#647=EDGE_CURVE('',#513,#514,#339,.T.);
#648=EDGE_CURVE('',#513,#515,#143,.T.);
#649=EDGE_CURVE('',#516,#515,#340,.T.);
#650=EDGE_CURVE('',#517,#516,#144,.T.);
#651=EDGE_CURVE('',#518,#517,#341,.T.);
#652=EDGE_CURVE('',#518,#519,#145,.T.);
#653=EDGE_CURVE('',#520,#519,#342,.T.);
#654=EDGE_CURVE('',#514,#520,#146,.T.);
#655=EDGE_CURVE('',#521,#517,#343,.T.);
#656=EDGE_CURVE('',#521,#522,#344,.T.);
#657=EDGE_CURVE('',#522,#523,#345,.T.);
#658=EDGE_CURVE('',#523,#524,#346,.T.);
#659=EDGE_CURVE('',#524,#518,#347,.T.);
#660=EDGE_CURVE('',#525,#516,#348,.T.);
#661=EDGE_CURVE('',#521,#525,#147,.T.);
#662=EDGE_CURVE('',#515,#526,#349,.T.);
#663=EDGE_CURVE('',#526,#527,#350,.T.);
#664=EDGE_CURVE('',#528,#527,#351,.T.);
#665=EDGE_CURVE('',#528,#525,#352,.T.);
#666=EDGE_CURVE('',#529,#530,#353,.T.);
#667=EDGE_CURVE('',#531,#529,#354,.T.);
#668=EDGE_CURVE('',#532,#531,#355,.T.);
#669=EDGE_CURVE('',#532,#533,#356,.T.);
#670=EDGE_CURVE('',#534,#533,#357,.T.);
#671=EDGE_CURVE('',#530,#534,#358,.T.);
#672=EDGE_CURVE('',#535,#536,#359,.T.);
#673=EDGE_CURVE('',#537,#535,#360,.T.);
#674=EDGE_CURVE('',#538,#537,#361,.T.);
#675=EDGE_CURVE('',#538,#539,#362,.T.);
#676=EDGE_CURVE('',#540,#539,#363,.T.);
#677=EDGE_CURVE('',#536,#540,#364,.T.);
#678=EDGE_CURVE('',#539,#532,#148,.T.);
#679=EDGE_CURVE('',#533,#538,#149,.T.);
#680=EDGE_CURVE('',#541,#539,#150,.T.);
#681=EDGE_CURVE('',#542,#541,#365,.T.);
#682=EDGE_CURVE('',#543,#542,#151,.T.);
#683=EDGE_CURVE('',#540,#543,#366,.T.);
#684=EDGE_CURVE('',#544,#531,#367,.T.);
#685=EDGE_CURVE('',#527,#544,#152,.T.);
#686=EDGE_CURVE('',#532,#526,#153,.T.);
#687=EDGE_CURVE('',#545,#543,#368,.T.);
#688=EDGE_CURVE('',#545,#536,#369,.T.);
#689=EDGE_CURVE('',#529,#546,#370,.T.);
#690=EDGE_CURVE('',#546,#544,#371,.T.);
#691=EDGE_CURVE('',#547,#545,#154,.T.);
#692=EDGE_CURVE('',#547,#548,#372,.T.);
#693=EDGE_CURVE('',#548,#549,#155,.T.);
#694=EDGE_CURVE('',#549,#550,#373,.T.);
#695=EDGE_CURVE('',#551,#550,#156,.T.);
#696=EDGE_CURVE('',#535,#551,#374,.T.);
#697=EDGE_CURVE('',#552,#530,#375,.T.);
#698=EDGE_CURVE('',#522,#552,#157,.T.);
#699=EDGE_CURVE('',#546,#528,#158,.T.);
#700=EDGE_CURVE('',#551,#553,#376,.T.);
#701=EDGE_CURVE('',#553,#537,#377,.T.);
#702=EDGE_CURVE('',#534,#554,#378,.T.);
#703=EDGE_CURVE('',#552,#554,#379,.T.);
#704=EDGE_CURVE('',#555,#553,#159,.T.);
#705=EDGE_CURVE('',#556,#555,#380,.T.);
#706=EDGE_CURVE('',#538,#556,#160,.T.);
#707=EDGE_CURVE('',#524,#533,#161,.T.);
#708=EDGE_CURVE('',#554,#523,#162,.T.);
#709=EDGE_CURVE('',#520,#549,#381,.T.);
#710=EDGE_CURVE('',#514,#548,#382,.T.);
#711=EDGE_CURVE('',#519,#556,#383,.T.);
#712=EDGE_CURVE('',#550,#555,#384,.T.);
#713=EDGE_CURVE('',#547,#542,#385,.T.);
#714=EDGE_CURVE('',#541,#513,#386,.T.);
#715=ORIENTED_EDGE('',*,*,#557,.F.);
#716=ORIENTED_EDGE('',*,*,#558,.T.);
#717=ORIENTED_EDGE('',*,*,#559,.F.);
#718=ORIENTED_EDGE('',*,*,#560,.F.);
#719=ORIENTED_EDGE('',*,*,#561,.F.);
#720=ORIENTED_EDGE('',*,*,#562,.F.);
#721=ORIENTED_EDGE('',*,*,#563,.F.);
#722=ORIENTED_EDGE('',*,*,#564,.T.);
#723=ORIENTED_EDGE('',*,*,#565,.T.);
#724=ORIENTED_EDGE('',*,*,#566,.T.);
#725=ORIENTED_EDGE('',*,*,#567,.T.);
#726=ORIENTED_EDGE('',*,*,#563,.T.);
#727=ORIENTED_EDGE('',*,*,#568,.F.);
#728=ORIENTED_EDGE('',*,*,#569,.T.);
#729=ORIENTED_EDGE('',*,*,#570,.F.);
#730=ORIENTED_EDGE('',*,*,#571,.F.);
#731=ORIENTED_EDGE('',*,*,#572,.F.);
#732=ORIENTED_EDGE('',*,*,#573,.T.);
#733=ORIENTED_EDGE('',*,*,#574,.T.);
#734=ORIENTED_EDGE('',*,*,#575,.T.);
#735=ORIENTED_EDGE('',*,*,#576,.F.);
#736=ORIENTED_EDGE('',*,*,#577,.F.);
#737=ORIENTED_EDGE('',*,*,#578,.F.);
#738=ORIENTED_EDGE('',*,*,#559,.T.);
#739=ORIENTED_EDGE('',*,*,#579,.T.);
#740=ORIENTED_EDGE('',*,*,#580,.F.);
#741=ORIENTED_EDGE('',*,*,#581,.F.);
#742=ORIENTED_EDGE('',*,*,#582,.T.);
#743=ORIENTED_EDGE('',*,*,#583,.T.);
#744=ORIENTED_EDGE('',*,*,#580,.T.);
#745=ORIENTED_EDGE('',*,*,#584,.F.);
#746=ORIENTED_EDGE('',*,*,#571,.T.);
#747=ORIENTED_EDGE('',*,*,#585,.T.);
#748=ORIENTED_EDGE('',*,*,#586,.T.);
#749=ORIENTED_EDGE('',*,*,#568,.T.);
#750=ORIENTED_EDGE('',*,*,#587,.F.);
#751=ORIENTED_EDGE('',*,*,#576,.T.);
#752=ORIENTED_EDGE('',*,*,#577,.T.);
#753=ORIENTED_EDGE('',*,*,#587,.T.);
#754=ORIENTED_EDGE('',*,*,#562,.T.);
#755=ORIENTED_EDGE('',*,*,#588,.F.);
#756=ORIENTED_EDGE('',*,*,#589,.T.);
#757=ORIENTED_EDGE('',*,*,#572,.T.);
#758=ORIENTED_EDGE('',*,*,#584,.T.);
#759=ORIENTED_EDGE('',*,*,#590,.T.);
#760=ORIENTED_EDGE('',*,*,#591,.T.);
#761=ORIENTED_EDGE('',*,*,#590,.F.);
#762=ORIENTED_EDGE('',*,*,#583,.F.);
#763=ORIENTED_EDGE('',*,*,#592,.T.);
#764=ORIENTED_EDGE('',*,*,#593,.F.);
#765=ORIENTED_EDGE('',*,*,#594,.T.);
#766=ORIENTED_EDGE('',*,*,#579,.F.);
#767=ORIENTED_EDGE('',*,*,#558,.F.);
#768=ORIENTED_EDGE('',*,*,#595,.T.);
#769=ORIENTED_EDGE('',*,*,#596,.T.);
#770=ORIENTED_EDGE('',*,*,#581,.T.);
#771=ORIENTED_EDGE('',*,*,#597,.F.);
#772=ORIENTED_EDGE('',*,*,#561,.T.);
#773=ORIENTED_EDGE('',*,*,#598,.F.);
#774=ORIENTED_EDGE('',*,*,#565,.F.);
#775=ORIENTED_EDGE('',*,*,#599,.T.);
#776=ORIENTED_EDGE('',*,*,#600,.F.);
#777=ORIENTED_EDGE('',*,*,#595,.F.);
#778=ORIENTED_EDGE('',*,*,#601,.F.);
#779=ORIENTED_EDGE('',*,*,#569,.F.);
#780=ORIENTED_EDGE('',*,*,#594,.F.);
#781=ORIENTED_EDGE('',*,*,#601,.T.);
#782=ORIENTED_EDGE('',*,*,#597,.T.);
#783=ORIENTED_EDGE('',*,*,#585,.F.);
#784=ORIENTED_EDGE('',*,*,#570,.T.);
#785=ORIENTED_EDGE('',*,*,#560,.T.);
#786=ORIENTED_EDGE('',*,*,#578,.T.);
#787=ORIENTED_EDGE('',*,*,#588,.T.);
#788=ORIENTED_EDGE('',*,*,#598,.T.);
#789=ORIENTED_EDGE('',*,*,#602,.F.);
#790=ORIENTED_EDGE('',*,*,#566,.F.);
#791=ORIENTED_EDGE('',*,*,#586,.F.);
#792=ORIENTED_EDGE('',*,*,#575,.F.);
#793=ORIENTED_EDGE('',*,*,#603,.T.);
#794=ORIENTED_EDGE('',*,*,#604,.F.);
#795=ORIENTED_EDGE('',*,*,#603,.F.);
#796=ORIENTED_EDGE('',*,*,#574,.F.);
#797=ORIENTED_EDGE('',*,*,#605,.T.);
#798=ORIENTED_EDGE('',*,*,#606,.F.);
#799=ORIENTED_EDGE('',*,*,#605,.F.);
#800=ORIENTED_EDGE('',*,*,#573,.F.);
#801=ORIENTED_EDGE('',*,*,#589,.F.);
#802=ORIENTED_EDGE('',*,*,#591,.F.);
#803=ORIENTED_EDGE('',*,*,#602,.T.);
#804=ORIENTED_EDGE('',*,*,#604,.T.);
#805=ORIENTED_EDGE('',*,*,#606,.T.);
#806=ORIENTED_EDGE('',*,*,#592,.F.);
#807=ORIENTED_EDGE('',*,*,#582,.F.);
#808=ORIENTED_EDGE('',*,*,#596,.F.);
#809=ORIENTED_EDGE('',*,*,#600,.T.);
#810=ORIENTED_EDGE('',*,*,#593,.T.);
#811=ORIENTED_EDGE('',*,*,#557,.T.);
#812=ORIENTED_EDGE('',*,*,#599,.F.);
#813=ORIENTED_EDGE('',*,*,#564,.F.);
#814=ORIENTED_EDGE('',*,*,#567,.F.);
#815=ORIENTED_EDGE('',*,*,#607,.F.);
#816=ORIENTED_EDGE('',*,*,#608,.T.);
#817=ORIENTED_EDGE('',*,*,#607,.T.);
#818=ORIENTED_EDGE('',*,*,#608,.F.);
#819=ORIENTED_EDGE('',*,*,#609,.F.);
#820=ORIENTED_EDGE('',*,*,#610,.T.);
#821=ORIENTED_EDGE('',*,*,#609,.T.);
#822=ORIENTED_EDGE('',*,*,#610,.F.);
#823=ORIENTED_EDGE('',*,*,#611,.F.);
#824=ORIENTED_EDGE('',*,*,#612,.T.);
#825=ORIENTED_EDGE('',*,*,#611,.T.);
#826=ORIENTED_EDGE('',*,*,#612,.F.);
#827=ORIENTED_EDGE('',*,*,#613,.F.);
#828=ORIENTED_EDGE('',*,*,#614,.T.);
#829=ORIENTED_EDGE('',*,*,#613,.T.);
#830=ORIENTED_EDGE('',*,*,#614,.F.);
#831=ORIENTED_EDGE('',*,*,#615,.F.);
#832=ORIENTED_EDGE('',*,*,#616,.T.);
#833=ORIENTED_EDGE('',*,*,#615,.T.);
#834=ORIENTED_EDGE('',*,*,#616,.F.);
#835=ORIENTED_EDGE('',*,*,#617,.F.);
#836=ORIENTED_EDGE('',*,*,#618,.T.);
#837=ORIENTED_EDGE('',*,*,#617,.T.);
#838=ORIENTED_EDGE('',*,*,#618,.F.);
#839=ORIENTED_EDGE('',*,*,#619,.F.);
#840=ORIENTED_EDGE('',*,*,#620,.T.);
#841=ORIENTED_EDGE('',*,*,#619,.T.);
#842=ORIENTED_EDGE('',*,*,#620,.F.);
#843=ORIENTED_EDGE('',*,*,#621,.F.);
#844=ORIENTED_EDGE('',*,*,#622,.T.);
#845=ORIENTED_EDGE('',*,*,#621,.T.);
#846=ORIENTED_EDGE('',*,*,#622,.F.);
#847=ORIENTED_EDGE('',*,*,#623,.F.);
#848=ORIENTED_EDGE('',*,*,#624,.T.);
#849=ORIENTED_EDGE('',*,*,#623,.T.);
#850=ORIENTED_EDGE('',*,*,#624,.F.);
#851=ORIENTED_EDGE('',*,*,#625,.F.);
#852=ORIENTED_EDGE('',*,*,#626,.T.);
#853=ORIENTED_EDGE('',*,*,#625,.T.);
#854=ORIENTED_EDGE('',*,*,#626,.F.);
#855=ORIENTED_EDGE('',*,*,#627,.F.);
#856=ORIENTED_EDGE('',*,*,#628,.T.);
#857=ORIENTED_EDGE('',*,*,#627,.T.);
#858=ORIENTED_EDGE('',*,*,#628,.F.);
#859=ORIENTED_EDGE('',*,*,#629,.F.);
#860=ORIENTED_EDGE('',*,*,#630,.T.);
#861=ORIENTED_EDGE('',*,*,#629,.T.);
#862=ORIENTED_EDGE('',*,*,#630,.F.);
#863=ORIENTED_EDGE('',*,*,#631,.F.);
#864=ORIENTED_EDGE('',*,*,#632,.T.);
#865=ORIENTED_EDGE('',*,*,#631,.T.);
#866=ORIENTED_EDGE('',*,*,#632,.F.);
#867=ORIENTED_EDGE('',*,*,#633,.F.);
#868=ORIENTED_EDGE('',*,*,#634,.T.);
#869=ORIENTED_EDGE('',*,*,#633,.T.);
#870=ORIENTED_EDGE('',*,*,#634,.F.);
#871=ORIENTED_EDGE('',*,*,#635,.F.);
#872=ORIENTED_EDGE('',*,*,#636,.T.);
#873=ORIENTED_EDGE('',*,*,#635,.T.);
#874=ORIENTED_EDGE('',*,*,#636,.F.);
#875=ORIENTED_EDGE('',*,*,#637,.F.);
#876=ORIENTED_EDGE('',*,*,#638,.T.);
#877=ORIENTED_EDGE('',*,*,#637,.T.);
#878=ORIENTED_EDGE('',*,*,#638,.F.);
#879=ORIENTED_EDGE('',*,*,#639,.F.);
#880=ORIENTED_EDGE('',*,*,#640,.T.);
#881=ORIENTED_EDGE('',*,*,#639,.T.);
#882=ORIENTED_EDGE('',*,*,#640,.F.);
#883=ORIENTED_EDGE('',*,*,#641,.F.);
#884=ORIENTED_EDGE('',*,*,#642,.T.);
#885=ORIENTED_EDGE('',*,*,#641,.T.);
#886=ORIENTED_EDGE('',*,*,#642,.F.);
#887=ORIENTED_EDGE('',*,*,#643,.F.);
#888=ORIENTED_EDGE('',*,*,#644,.T.);
#889=ORIENTED_EDGE('',*,*,#643,.T.);
#890=ORIENTED_EDGE('',*,*,#644,.F.);
#891=ORIENTED_EDGE('',*,*,#645,.F.);
#892=ORIENTED_EDGE('',*,*,#646,.T.);
#893=ORIENTED_EDGE('',*,*,#645,.T.);
#894=ORIENTED_EDGE('',*,*,#646,.F.);
#895=ORIENTED_EDGE('',*,*,#647,.F.);
#896=ORIENTED_EDGE('',*,*,#648,.T.);
#897=ORIENTED_EDGE('',*,*,#649,.F.);
#898=ORIENTED_EDGE('',*,*,#650,.F.);
#899=ORIENTED_EDGE('',*,*,#651,.F.);
#900=ORIENTED_EDGE('',*,*,#652,.T.);
#901=ORIENTED_EDGE('',*,*,#653,.F.);
#902=ORIENTED_EDGE('',*,*,#654,.F.);
#903=ORIENTED_EDGE('',*,*,#651,.T.);
#904=ORIENTED_EDGE('',*,*,#655,.F.);
#905=ORIENTED_EDGE('',*,*,#656,.T.);
#906=ORIENTED_EDGE('',*,*,#657,.T.);
#907=ORIENTED_EDGE('',*,*,#658,.T.);
#908=ORIENTED_EDGE('',*,*,#659,.T.);
#909=ORIENTED_EDGE('',*,*,#650,.T.);
#910=ORIENTED_EDGE('',*,*,#660,.F.);
#911=ORIENTED_EDGE('',*,*,#661,.F.);
#912=ORIENTED_EDGE('',*,*,#655,.T.);
#913=ORIENTED_EDGE('',*,*,#649,.T.);
#914=ORIENTED_EDGE('',*,*,#662,.T.);
#915=ORIENTED_EDGE('',*,*,#663,.T.);
#916=ORIENTED_EDGE('',*,*,#664,.F.);
#917=ORIENTED_EDGE('',*,*,#665,.T.);
#918=ORIENTED_EDGE('',*,*,#660,.T.);
#919=ORIENTED_EDGE('',*,*,#666,.F.);
#920=ORIENTED_EDGE('',*,*,#667,.F.);
#921=ORIENTED_EDGE('',*,*,#668,.F.);
#922=ORIENTED_EDGE('',*,*,#669,.T.);
#923=ORIENTED_EDGE('',*,*,#670,.F.);
#924=ORIENTED_EDGE('',*,*,#671,.F.);
#925=ORIENTED_EDGE('',*,*,#672,.F.);
#926=ORIENTED_EDGE('',*,*,#673,.F.);
#927=ORIENTED_EDGE('',*,*,#674,.F.);
#928=ORIENTED_EDGE('',*,*,#675,.T.);
#929=ORIENTED_EDGE('',*,*,#676,.F.);
#930=ORIENTED_EDGE('',*,*,#677,.F.);
#931=ORIENTED_EDGE('',*,*,#678,.F.);
#932=ORIENTED_EDGE('',*,*,#675,.F.);
#933=ORIENTED_EDGE('',*,*,#679,.F.);
#934=ORIENTED_EDGE('',*,*,#669,.F.);
#935=ORIENTED_EDGE('',*,*,#676,.T.);
#936=ORIENTED_EDGE('',*,*,#680,.F.);
#937=ORIENTED_EDGE('',*,*,#681,.F.);
#938=ORIENTED_EDGE('',*,*,#682,.F.);
#939=ORIENTED_EDGE('',*,*,#683,.F.);
#940=ORIENTED_EDGE('',*,*,#668,.T.);
#941=ORIENTED_EDGE('',*,*,#684,.F.);
#942=ORIENTED_EDGE('',*,*,#685,.F.);
#943=ORIENTED_EDGE('',*,*,#663,.F.);
#944=ORIENTED_EDGE('',*,*,#686,.F.);
#945=ORIENTED_EDGE('',*,*,#677,.T.);
#946=ORIENTED_EDGE('',*,*,#683,.T.);
#947=ORIENTED_EDGE('',*,*,#687,.F.);
#948=ORIENTED_EDGE('',*,*,#688,.T.);
#949=ORIENTED_EDGE('',*,*,#667,.T.);
#950=ORIENTED_EDGE('',*,*,#689,.T.);
#951=ORIENTED_EDGE('',*,*,#690,.T.);
#952=ORIENTED_EDGE('',*,*,#684,.T.);
#953=ORIENTED_EDGE('',*,*,#672,.T.);
#954=ORIENTED_EDGE('',*,*,#688,.F.);
#955=ORIENTED_EDGE('',*,*,#691,.F.);
#956=ORIENTED_EDGE('',*,*,#692,.T.);
#957=ORIENTED_EDGE('',*,*,#693,.T.);
#958=ORIENTED_EDGE('',*,*,#694,.T.);
#959=ORIENTED_EDGE('',*,*,#695,.F.);
#960=ORIENTED_EDGE('',*,*,#696,.F.);
#961=ORIENTED_EDGE('',*,*,#666,.T.);
#962=ORIENTED_EDGE('',*,*,#697,.F.);
#963=ORIENTED_EDGE('',*,*,#698,.F.);
#964=ORIENTED_EDGE('',*,*,#656,.F.);
#965=ORIENTED_EDGE('',*,*,#661,.T.);
#966=ORIENTED_EDGE('',*,*,#665,.F.);
#967=ORIENTED_EDGE('',*,*,#699,.F.);
#968=ORIENTED_EDGE('',*,*,#689,.F.);
#969=ORIENTED_EDGE('',*,*,#673,.T.);
#970=ORIENTED_EDGE('',*,*,#696,.T.);
#971=ORIENTED_EDGE('',*,*,#700,.T.);
#972=ORIENTED_EDGE('',*,*,#701,.T.);
#973=ORIENTED_EDGE('',*,*,#671,.T.);
#974=ORIENTED_EDGE('',*,*,#702,.T.);
#975=ORIENTED_EDGE('',*,*,#703,.F.);
#976=ORIENTED_EDGE('',*,*,#697,.T.);
#977=ORIENTED_EDGE('',*,*,#674,.T.);
#978=ORIENTED_EDGE('',*,*,#701,.F.);
#979=ORIENTED_EDGE('',*,*,#704,.F.);
#980=ORIENTED_EDGE('',*,*,#705,.F.);
#981=ORIENTED_EDGE('',*,*,#706,.F.);
#982=ORIENTED_EDGE('',*,*,#670,.T.);
#983=ORIENTED_EDGE('',*,*,#707,.F.);
#984=ORIENTED_EDGE('',*,*,#658,.F.);
#985=ORIENTED_EDGE('',*,*,#708,.F.);
#986=ORIENTED_EDGE('',*,*,#702,.F.);
#987=ORIENTED_EDGE('',*,*,#654,.T.);
#988=ORIENTED_EDGE('',*,*,#709,.T.);
#989=ORIENTED_EDGE('',*,*,#693,.F.);
#990=ORIENTED_EDGE('',*,*,#710,.F.);
#991=ORIENTED_EDGE('',*,*,#653,.T.);
#992=ORIENTED_EDGE('',*,*,#711,.T.);
#993=ORIENTED_EDGE('',*,*,#705,.T.);
#994=ORIENTED_EDGE('',*,*,#712,.F.);
#995=ORIENTED_EDGE('',*,*,#694,.F.);
#996=ORIENTED_EDGE('',*,*,#709,.F.);
#997=ORIENTED_EDGE('',*,*,#647,.T.);
#998=ORIENTED_EDGE('',*,*,#710,.T.);
#999=ORIENTED_EDGE('',*,*,#692,.F.);
#1000=ORIENTED_EDGE('',*,*,#713,.T.);
#1001=ORIENTED_EDGE('',*,*,#681,.T.);
#1002=ORIENTED_EDGE('',*,*,#714,.T.);
#1003=ORIENTED_EDGE('',*,*,#714,.F.);
#1004=ORIENTED_EDGE('',*,*,#680,.T.);
#1005=ORIENTED_EDGE('',*,*,#678,.T.);
#1006=ORIENTED_EDGE('',*,*,#686,.T.);
#1007=ORIENTED_EDGE('',*,*,#662,.F.);
#1008=ORIENTED_EDGE('',*,*,#648,.F.);
#1009=ORIENTED_EDGE('',*,*,#659,.F.);
#1010=ORIENTED_EDGE('',*,*,#707,.T.);
#1011=ORIENTED_EDGE('',*,*,#679,.T.);
#1012=ORIENTED_EDGE('',*,*,#706,.T.);
#1013=ORIENTED_EDGE('',*,*,#711,.F.);
#1014=ORIENTED_EDGE('',*,*,#652,.F.);
#1015=ORIENTED_EDGE('',*,*,#704,.T.);
#1016=ORIENTED_EDGE('',*,*,#700,.F.);
#1017=ORIENTED_EDGE('',*,*,#695,.T.);
#1018=ORIENTED_EDGE('',*,*,#712,.T.);
#1019=ORIENTED_EDGE('',*,*,#708,.T.);
#1020=ORIENTED_EDGE('',*,*,#657,.F.);
#1021=ORIENTED_EDGE('',*,*,#698,.T.);
#1022=ORIENTED_EDGE('',*,*,#703,.T.);
#1023=ORIENTED_EDGE('',*,*,#685,.T.);
#1024=ORIENTED_EDGE('',*,*,#690,.F.);
#1025=ORIENTED_EDGE('',*,*,#699,.T.);
#1026=ORIENTED_EDGE('',*,*,#664,.T.);
#1027=ORIENTED_EDGE('',*,*,#682,.T.);
#1028=ORIENTED_EDGE('',*,*,#713,.F.);
#1029=ORIENTED_EDGE('',*,*,#691,.T.);
#1030=ORIENTED_EDGE('',*,*,#687,.T.);
#1031=PLANE('',#1160);
#1032=PLANE('',#1161);
#1033=PLANE('',#1165);
#1034=PLANE('',#1172);
#1035=PLANE('',#1173);
#1036=PLANE('',#1175);
#1037=PLANE('',#1188);
#1038=PLANE('',#1191);
#1039=PLANE('',#1194);
#1040=PLANE('',#1195);
#1041=PLANE('',#1256);
#1042=PLANE('',#1261);
#1043=PLANE('',#1264);
#1044=PLANE('',#1265);
#1045=PLANE('',#1266);
#1046=PLANE('',#1267);
#1047=PLANE('',#1270);
#1048=PLANE('',#1273);
#1049=PLANE('',#1276);
#1050=PLANE('',#1277);
#1051=PLANE('',#1278);
#1052=PLANE('',#1282);
#1053=PLANE('',#1285);
#1054=PLANE('',#1286);
#1055=PLANE('',#1287);
#1056=PLANE('',#1290);
#1057=PLANE('',#1294);
#1058=PLANE('',#1295);
#1059=ADVANCED_FACE('',(#177),#1031,.T.);
#1060=ADVANCED_FACE('',(#178),#1032,.T.);
#1061=ADVANCED_FACE('',(#179),#163,.T.);
#1062=ADVANCED_FACE('',(#180),#1033,.T.);
#1063=ADVANCED_FACE('',(#181),#1034,.T.);
#1064=ADVANCED_FACE('',(#182),#1035,.T.);
#1065=ADVANCED_FACE('',(#183),#79,.T.);
#1066=ADVANCED_FACE('',(#184),#1036,.T.);
#1067=ADVANCED_FACE('',(#185),#80,.T.);
#1068=ADVANCED_FACE('',(#186),#164,.T.);
#1069=ADVANCED_FACE('',(#187),#165,.F.);
#1070=ADVANCED_FACE('',(#188),#166,.T.);
#1071=ADVANCED_FACE('',(#189),#167,.T.);
#1072=ADVANCED_FACE('',(#190),#1037,.T.);
#1073=ADVANCED_FACE('',(#191),#81,.T.);
#1074=ADVANCED_FACE('',(#192),#82,.T.);
#1075=ADVANCED_FACE('',(#193),#1038,.T.);
#1076=ADVANCED_FACE('',(#194),#168,.F.);
#1077=ADVANCED_FACE('',(#195),#1039,.T.);
#1078=ADVANCED_FACE('',(#196),#1040,.T.);
#1079=ADVANCED_FACE('',(#197),#13,.T.);
#1080=ADVANCED_FACE('',(#198),#14,.T.);
#1081=ADVANCED_FACE('',(#199),#15,.T.);
#1082=ADVANCED_FACE('',(#200),#16,.T.);
#1083=ADVANCED_FACE('',(#201),#17,.T.);
#1084=ADVANCED_FACE('',(#202),#18,.T.);
#1085=ADVANCED_FACE('',(#203),#19,.T.);
#1086=ADVANCED_FACE('',(#204),#20,.T.);
#1087=ADVANCED_FACE('',(#205),#21,.T.);
#1088=ADVANCED_FACE('',(#206),#22,.T.);
#1089=ADVANCED_FACE('',(#207),#23,.T.);
#1090=ADVANCED_FACE('',(#208),#24,.T.);
#1091=ADVANCED_FACE('',(#209),#25,.T.);
#1092=ADVANCED_FACE('',(#210),#26,.T.);
#1093=ADVANCED_FACE('',(#211),#27,.T.);
#1094=ADVANCED_FACE('',(#212),#28,.T.);
#1095=ADVANCED_FACE('',(#213),#29,.T.);
#1096=ADVANCED_FACE('',(#214),#30,.T.);
#1097=ADVANCED_FACE('',(#215),#31,.T.);
#1098=ADVANCED_FACE('',(#216),#32,.T.);
#1099=ADVANCED_FACE('',(#217),#1041,.F.);
#1100=ADVANCED_FACE('',(#218),#1042,.T.);
#1101=ADVANCED_FACE('',(#219),#169,.F.);
#1102=ADVANCED_FACE('',(#220),#1043,.T.);
#1103=ADVANCED_FACE('',(#221),#1044,.F.);
#1104=ADVANCED_FACE('',(#222),#1045,.F.);
#1105=ADVANCED_FACE('',(#223),#1046,.F.);
#1106=ADVANCED_FACE('',(#224),#1047,.F.);
#1107=ADVANCED_FACE('',(#225),#1048,.F.);
#1108=ADVANCED_FACE('',(#226),#1049,.T.);
#1109=ADVANCED_FACE('',(#227),#1050,.T.);
#1110=ADVANCED_FACE('',(#228),#1051,.F.);
#1111=ADVANCED_FACE('',(#229),#1052,.F.);
#1112=ADVANCED_FACE('',(#230),#1053,.T.);
#1113=ADVANCED_FACE('',(#231),#1054,.T.);
#1114=ADVANCED_FACE('',(#232),#1055,.F.);
#1115=ADVANCED_FACE('',(#233),#1056,.F.);
#1116=ADVANCED_FACE('',(#234),#170,.F.);
#1117=ADVANCED_FACE('',(#235),#1057,.T.);
#1118=ADVANCED_FACE('',(#236),#1058,.T.);
#1119=ADVANCED_FACE('',(#237),#171,.T.);
#1120=ADVANCED_FACE('',(#238),#172,.T.);
#1121=ADVANCED_FACE('',(#239),#173,.T.);
#1122=ADVANCED_FACE('',(#240),#174,.T.);
#1123=ADVANCED_FACE('',(#241),#175,.T.);
#1124=ADVANCED_FACE('',(#242),#176,.T.);
#1125=CLOSED_SHELL('',(#1059,#1060,#1061,#1062,#1063,#1064,#1065,#1066,
#1067,#1068,#1069,#1070,#1071,#1072,#1073,#1074,#1075,#1076,#1077,#1078));
#1126=CLOSED_SHELL('',(#1079));
#1127=CLOSED_SHELL('',(#1080));
#1128=CLOSED_SHELL('',(#1081));
#1129=CLOSED_SHELL('',(#1082));
#1130=CLOSED_SHELL('',(#1083));
#1131=CLOSED_SHELL('',(#1084));
#1132=CLOSED_SHELL('',(#1085));
#1133=CLOSED_SHELL('',(#1086));
#1134=CLOSED_SHELL('',(#1087));
#1135=CLOSED_SHELL('',(#1088));
#1136=CLOSED_SHELL('',(#1089));
#1137=CLOSED_SHELL('',(#1090));
#1138=CLOSED_SHELL('',(#1091));
#1139=CLOSED_SHELL('',(#1092));
#1140=CLOSED_SHELL('',(#1093));
#1141=CLOSED_SHELL('',(#1094));
#1142=CLOSED_SHELL('',(#1095));
#1143=CLOSED_SHELL('',(#1096));
#1144=CLOSED_SHELL('',(#1097));
#1145=CLOSED_SHELL('',(#1098));
#1146=CLOSED_SHELL('',(#1099,#1100,#1101,#1102,#1103,#1104,#1105,#1106,
#1107,#1108,#1109,#1110,#1111,#1112,#1113,#1114,#1115,#1116,#1117,#1118,
#1119,#1120,#1121,#1122,#1123,#1124));
#1147=DERIVED_UNIT_ELEMENT(#1149,1.);
#1148=DERIVED_UNIT_ELEMENT(#2008,-3.);
#1149=(
MASS_UNIT()
NAMED_UNIT(*)
SI_UNIT(.KILO.,.GRAM.)
);
#1150=DERIVED_UNIT((#1147,#1148));
#1151=MEASURE_REPRESENTATION_ITEM('density measure',
POSITIVE_RATIO_MEASURE(7850.),#1150);
#1152=PROPERTY_DEFINITION_REPRESENTATION(#1157,#1154);
#1153=PROPERTY_DEFINITION_REPRESENTATION(#1158,#1155);
#1154=REPRESENTATION('material name',(#1156),#2005);
#1155=REPRESENTATION('density',(#1151),#2005);
#1156=DESCRIPTIVE_REPRESENTATION_ITEM('Steel','Steel');
#1157=PROPERTY_DEFINITION('material property','material name',#2015);
#1158=PROPERTY_DEFINITION('material property','density of part',#2015);
#1159=AXIS2_PLACEMENT_3D('',#1662,#1302,#1303);
#1160=AXIS2_PLACEMENT_3D('',#1663,#1304,#1305);
#1161=AXIS2_PLACEMENT_3D('',#1676,#1310,#1311);
#1162=AXIS2_PLACEMENT_3D('',#1685,#1316,#1317);
#1163=AXIS2_PLACEMENT_3D('',#1689,#1319,#1320);
#1164=AXIS2_PLACEMENT_3D('',#1690,#1321,#1322);
#1165=AXIS2_PLACEMENT_3D('',#1691,#1323,#1324);
#1166=AXIS2_PLACEMENT_3D('',#1696,#1326,#1327);
#1167=AXIS2_PLACEMENT_3D('',#1700,#1329,#1330);
#1168=AXIS2_PLACEMENT_3D('',#1704,#1332,#1333);
#1169=AXIS2_PLACEMENT_3D('',#1708,#1335,#1336);
#1170=AXIS2_PLACEMENT_3D('',#1711,#1338,#1339);
#1171=AXIS2_PLACEMENT_3D('',#1712,#1340,#1341);
#1172=AXIS2_PLACEMENT_3D('',#1713,#1342,#1343);
#1173=AXIS2_PLACEMENT_3D('',#1722,#1348,#1349);
#1174=AXIS2_PLACEMENT_3D('',#1731,#1350,#1351);
#1175=AXIS2_PLACEMENT_3D('',#1739,#1352,#1353);
#1176=AXIS2_PLACEMENT_3D('',#1744,#1354,#1355);
#1177=AXIS2_PLACEMENT_3D('',#1749,#1356,#1357);
#1178=AXIS2_PLACEMENT_3D('',#1750,#1358,#1359);
#1179=AXIS2_PLACEMENT_3D('',#1753,#1361,#1362);
#1180=AXIS2_PLACEMENT_3D('',#1754,#1363,#1364);
#1181=AXIS2_PLACEMENT_3D('',#1756,#1365,#1366);
#1182=AXIS2_PLACEMENT_3D('',#1758,#1368,#1369);
#1183=AXIS2_PLACEMENT_3D('',#1762,#1371,#1372);
#1184=AXIS2_PLACEMENT_3D('',#1763,#1373,#1374);
#1185=AXIS2_PLACEMENT_3D('',#1764,#1375,#1376);
#1186=AXIS2_PLACEMENT_3D('',#1765,#1377,#1378);
#1187=AXIS2_PLACEMENT_3D('',#1766,#1379,#1380);
#1188=AXIS2_PLACEMENT_3D('',#1767,#1381,#1382);
#1189=AXIS2_PLACEMENT_3D('',#1772,#1384,#1385);
#1190=AXIS2_PLACEMENT_3D('',#1773,#1386,#1387);
#1191=AXIS2_PLACEMENT_3D('',#1774,#1388,#1389);
#1192=AXIS2_PLACEMENT_3D('',#1778,#1392,#1393);
#1193=AXIS2_PLACEMENT_3D('',#1780,#1394,#1395);
#1194=AXIS2_PLACEMENT_3D('',#1782,#1397,#1398);
#1195=AXIS2_PLACEMENT_3D('',#1784,#1400,#1401);
#1196=AXIS2_PLACEMENT_3D('',#1785,#1402,#1403);
#1197=AXIS2_PLACEMENT_3D('',#1787,#1404,#1405);
#1198=AXIS2_PLACEMENT_3D('',#1788,#1406,#1407);
#1199=AXIS2_PLACEMENT_3D('',#1789,#1408,#1409);
#1200=AXIS2_PLACEMENT_3D('',#1791,#1410,#1411);
#1201=AXIS2_PLACEMENT_3D('',#1792,#1412,#1413);
#1202=AXIS2_PLACEMENT_3D('',#1793,#1414,#1415);
#1203=AXIS2_PLACEMENT_3D('',#1795,#1416,#1417);
#1204=AXIS2_PLACEMENT_3D('',#1796,#1418,#1419);
#1205=AXIS2_PLACEMENT_3D('',#1797,#1420,#1421);
#1206=AXIS2_PLACEMENT_3D('',#1799,#1422,#1423);
#1207=AXIS2_PLACEMENT_3D('',#1800,#1424,#1425);
#1208=AXIS2_PLACEMENT_3D('',#1801,#1426,#1427);
#1209=AXIS2_PLACEMENT_3D('',#1803,#1428,#1429);
#1210=AXIS2_PLACEMENT_3D('',#1804,#1430,#1431);
#1211=AXIS2_PLACEMENT_3D('',#1805,#1432,#1433);
#1212=AXIS2_PLACEMENT_3D('',#1807,#1434,#1435);
#1213=AXIS2_PLACEMENT_3D('',#1808,#1436,#1437);
#1214=AXIS2_PLACEMENT_3D('',#1809,#1438,#1439);
#1215=AXIS2_PLACEMENT_3D('',#1811,#1440,#1441);
#1216=AXIS2_PLACEMENT_3D('',#1812,#1442,#1443);
#1217=AXIS2_PLACEMENT_3D('',#1813,#1444,#1445);
#1218=AXIS2_PLACEMENT_3D('',#1815,#1446,#1447);
#1219=AXIS2_PLACEMENT_3D('',#1816,#1448,#1449);
#1220=AXIS2_PLACEMENT_3D('',#1817,#1450,#1451);
#1221=AXIS2_PLACEMENT_3D('',#1819,#1452,#1453);
#1222=AXIS2_PLACEMENT_3D('',#1820,#1454,#1455);
#1223=AXIS2_PLACEMENT_3D('',#1821,#1456,#1457);
#1224=AXIS2_PLACEMENT_3D('',#1823,#1458,#1459);
#1225=AXIS2_PLACEMENT_3D('',#1824,#1460,#1461);
#1226=AXIS2_PLACEMENT_3D('',#1825,#1462,#1463);
#1227=AXIS2_PLACEMENT_3D('',#1827,#1464,#1465);
#1228=AXIS2_PLACEMENT_3D('',#1828,#1466,#1467);
#1229=AXIS2_PLACEMENT_3D('',#1829,#1468,#1469);
#1230=AXIS2_PLACEMENT_3D('',#1831,#1470,#1471);
#1231=AXIS2_PLACEMENT_3D('',#1832,#1472,#1473);
#1232=AXIS2_PLACEMENT_3D('',#1833,#1474,#1475);
#1233=AXIS2_PLACEMENT_3D('',#1835,#1476,#1477);
#1234=AXIS2_PLACEMENT_3D('',#1836,#1478,#1479);
#1235=AXIS2_PLACEMENT_3D('',#1837,#1480,#1481);
#1236=AXIS2_PLACEMENT_3D('',#1839,#1482,#1483);
#1237=AXIS2_PLACEMENT_3D('',#1840,#1484,#1485);
#1238=AXIS2_PLACEMENT_3D('',#1841,#1486,#1487);
#1239=AXIS2_PLACEMENT_3D('',#1843,#1488,#1489);
#1240=AXIS2_PLACEMENT_3D('',#1844,#1490,#1491);
#1241=AXIS2_PLACEMENT_3D('',#1845,#1492,#1493);
#1242=AXIS2_PLACEMENT_3D('',#1847,#1494,#1495);
#1243=AXIS2_PLACEMENT_3D('',#1848,#1496,#1497);
#1244=AXIS2_PLACEMENT_3D('',#1849,#1498,#1499);
#1245=AXIS2_PLACEMENT_3D('',#1851,#1500,#1501);
#1246=AXIS2_PLACEMENT_3D('',#1852,#1502,#1503);
#1247=AXIS2_PLACEMENT_3D('',#1853,#1504,#1505);
#1248=AXIS2_PLACEMENT_3D('',#1855,#1506,#1507);
#1249=AXIS2_PLACEMENT_3D('',#1856,#1508,#1509);
#1250=AXIS2_PLACEMENT_3D('',#1857,#1510,#1511);
#1251=AXIS2_PLACEMENT_3D('',#1859,#1512,#1513);
#1252=AXIS2_PLACEMENT_3D('',#1860,#1514,#1515);
#1253=AXIS2_PLACEMENT_3D('',#1861,#1516,#1517);
#1254=AXIS2_PLACEMENT_3D('',#1863,#1518,#1519);
#1255=AXIS2_PLACEMENT_3D('',#1864,#1520,#1521);
#1256=AXIS2_PLACEMENT_3D('',#1865,#1522,#1523);
#1257=AXIS2_PLACEMENT_3D('',#1870,#1525,#1526);
#1258=AXIS2_PLACEMENT_3D('',#1874,#1528,#1529);
#1259=AXIS2_PLACEMENT_3D('',#1878,#1531,#1532);
#1260=AXIS2_PLACEMENT_3D('',#1881,#1534,#1535);
#1261=AXIS2_PLACEMENT_3D('',#1882,#1536,#1537);
#1262=AXIS2_PLACEMENT_3D('',#1892,#1543,#1544);
#1263=AXIS2_PLACEMENT_3D('',#1895,#1546,#1547);
#1264=AXIS2_PLACEMENT_3D('',#1896,#1548,#1549);
#1265=AXIS2_PLACEMENT_3D('',#1904,#1554,#1555);
#1266=AXIS2_PLACEMENT_3D('',#1917,#1562,#1563);
#1267=AXIS2_PLACEMENT_3D('',#1930,#1570,#1571);
#1268=AXIS2_PLACEMENT_3D('',#1931,#1572,#1573);
#1269=AXIS2_PLACEMENT_3D('',#1932,#1574,#1575);
#1270=AXIS2_PLACEMENT_3D('',#1933,#1576,#1577);
#1271=AXIS2_PLACEMENT_3D('',#1935,#1578,#1579);
#1272=AXIS2_PLACEMENT_3D('',#1939,#1581,#1582);
#1273=AXIS2_PLACEMENT_3D('',#1941,#1584,#1585);
#1274=AXIS2_PLACEMENT_3D('',#1944,#1587,#1588);
#1275=AXIS2_PLACEMENT_3D('',#1945,#1589,#1590);
#1276=AXIS2_PLACEMENT_3D('',#1946,#1591,#1592);
#1277=AXIS2_PLACEMENT_3D('',#1950,#1595,#1596);
#1278=AXIS2_PLACEMENT_3D('',#1954,#1599,#1600);
#1279=AXIS2_PLACEMENT_3D('',#1956,#1601,#1602);
#1280=AXIS2_PLACEMENT_3D('',#1960,#1604,#1605);
#1281=AXIS2_PLACEMENT_3D('',#1964,#1607,#1608);
#1282=AXIS2_PLACEMENT_3D('',#1966,#1610,#1611);
#1283=AXIS2_PLACEMENT_3D('',#1969,#1613,#1614);
#1284=AXIS2_PLACEMENT_3D('',#1970,#1615,#1616);
#1285=AXIS2_PLACEMENT_3D('',#1971,#1617,#1618);
#1286=AXIS2_PLACEMENT_3D('',#1975,#1621,#1622);
#1287=AXIS2_PLACEMENT_3D('',#1979,#1625,#1626);
#1288=AXIS2_PLACEMENT_3D('',#1981,#1627,#1628);
#1289=AXIS2_PLACEMENT_3D('',#1984,#1630,#1631);
#1290=AXIS2_PLACEMENT_3D('',#1985,#1632,#1633);
#1291=AXIS2_PLACEMENT_3D('',#1986,#1634,#1635);
#1292=AXIS2_PLACEMENT_3D('',#1987,#1636,#1637);
#1293=AXIS2_PLACEMENT_3D('',#1988,#1638,#1639);
#1294=AXIS2_PLACEMENT_3D('',#1991,#1642,#1643);
#1295=AXIS2_PLACEMENT_3D('',#1994,#1646,#1647);
#1296=AXIS2_PLACEMENT_3D('',#1997,#1650,#1651);
#1297=AXIS2_PLACEMENT_3D('',#1998,#1652,#1653);
#1298=AXIS2_PLACEMENT_3D('',#1999,#1654,#1655);
#1299=AXIS2_PLACEMENT_3D('',#2000,#1656,#1657);
#1300=AXIS2_PLACEMENT_3D('',#2001,#1658,#1659);
#1301=AXIS2_PLACEMENT_3D('',#2002,#1660,#1661);
#1302=DIRECTION('axis',(0.,0.,1.));
#1303=DIRECTION('refdir',(1.,0.,0.));
#1304=DIRECTION('center_axis',(1.,0.,0.));
#1305=DIRECTION('ref_axis',(0.,1.,0.));
#1306=DIRECTION('',(0.,-1.,0.));
#1307=DIRECTION('',(0.,0.,1.));
#1308=DIRECTION('',(1.78193441625441E-15,1.,0.));
#1309=DIRECTION('',(0.,0.,1.));
#1310=DIRECTION('center_axis',(-1.,0.,0.));
#1311=DIRECTION('ref_axis',(0.,-1.,0.));
#1312=DIRECTION('',(0.,-1.,0.));
#1313=DIRECTION('',(0.,0.,1.));
#1314=DIRECTION('',(0.,-1.,0.));
#1315=DIRECTION('',(0.,0.,1.));
#1316=DIRECTION('center_axis',(0.,0.,1.));
#1317=DIRECTION('ref_axis',(1.,0.,0.));
#1318=DIRECTION('',(0.,0.,-1.));
#1319=DIRECTION('center_axis',(0.,0.,1.));
#1320=DIRECTION('ref_axis',(1.,0.,0.));
#1321=DIRECTION('center_axis',(0.,0.,1.));
#1322=DIRECTION('ref_axis',(1.,0.,0.));
#1323=DIRECTION('center_axis',(0.,0.,1.));
#1324=DIRECTION('ref_axis',(1.,0.,0.));
#1325=DIRECTION('',(6.36405148662288E-16,-1.,0.));
#1326=DIRECTION('center_axis',(0.,0.,-1.));
#1327=DIRECTION('ref_axis',(1.,0.,0.));
#1328=DIRECTION('',(0.,-1.,0.));
#1329=DIRECTION('center_axis',(0.,0.,-1.));
#1330=DIRECTION('ref_axis',(1.,0.,0.));
#1331=DIRECTION('',(-1.40009132705703E-15,-1.,0.));
#1332=DIRECTION('center_axis',(0.,0.,-1.));
#1333=DIRECTION('ref_axis',(-1.,1.11022302462516E-15,0.));
#1334=DIRECTION('',(7.63686178394746E-16,1.,0.));
#1335=DIRECTION('center_axis',(0.,0.,-1.));
#1336=DIRECTION('ref_axis',(1.,0.,0.));
#1337=DIRECTION('',(0.,1.,0.));
#1338=DIRECTION('center_axis',(0.,0.,-1.));
#1339=DIRECTION('ref_axis',(1.,0.,0.));
#1340=DIRECTION('center_axis',(0.,0.,-1.));
#1341=DIRECTION('ref_axis',(1.,1.11022302462516E-15,0.));
#1342=DIRECTION('center_axis',(1.,0.,0.));
#1343=DIRECTION('ref_axis',(0.,1.,0.));
#1344=DIRECTION('',(0.,1.,0.));
#1345=DIRECTION('',(0.,0.,1.));
#1346=DIRECTION('',(0.,1.,0.));
#1347=DIRECTION('',(0.,0.,1.));
#1348=DIRECTION('center_axis',(0.707106781186548,0.,0.707106781186548));
#1349=DIRECTION('ref_axis',(0.707106781186548,0.,-0.707106781186548));
#1350=DIRECTION('center_axis',(0.,0.,-1.));
#1351=DIRECTION('ref_axis',(1.,0.,0.));
#1352=DIRECTION('center_axis',(-0.707106781186548,0.,0.707106781186548));
#1353=DIRECTION('ref_axis',(0.707106781186548,0.,0.707106781186548));
#1354=DIRECTION('center_axis',(0.,0.,-1.));
#1355=DIRECTION('ref_axis',(1.,0.,0.));
#1356=DIRECTION('center_axis',(0.,0.,1.));
#1357=DIRECTION('ref_axis',(1.,0.,0.));
#1358=DIRECTION('center_axis',(0.,0.,1.));
#1359=DIRECTION('ref_axis',(1.,0.,0.));
#1360=DIRECTION('',(0.,0.,1.));
#1361=DIRECTION('center_axis',(0.,0.,1.));
#1362=DIRECTION('ref_axis',(1.,0.,0.));
#1363=DIRECTION('center_axis',(0.,0.,1.));
#1364=DIRECTION('ref_axis',(1.,1.11022302462516E-15,0.));
#1365=DIRECTION('center_axis',(0.,0.,1.));
#1366=DIRECTION('ref_axis',(1.,1.11022302462516E-15,0.));
#1367=DIRECTION('',(0.,0.,1.));
#1368=DIRECTION('center_axis',(0.,0.,1.));
#1369=DIRECTION('ref_axis',(1.,0.,0.));
#1370=DIRECTION('',(0.,0.,-1.));
#1371=DIRECTION('center_axis',(0.,0.,1.));
#1372=DIRECTION('ref_axis',(1.,0.,0.));
#1373=DIRECTION('center_axis',(0.,0.,1.));
#1374=DIRECTION('ref_axis',(1.,0.,0.));
#1375=DIRECTION('center_axis',(0.,0.,1.));
#1376=DIRECTION('ref_axis',(1.,0.,0.));
#1377=DIRECTION('center_axis',(0.,0.,1.));
#1378=DIRECTION('ref_axis',(1.,0.,0.));
#1379=DIRECTION('center_axis',(0.,0.,1.));
#1380=DIRECTION('ref_axis',(1.,0.,0.));
#1381=DIRECTION('center_axis',(-1.,-6.71013032439656E-16,0.));
#1382=DIRECTION('ref_axis',(6.71013032439656E-16,-1.,0.));
#1383=DIRECTION('',(-6.71013032439656E-16,1.,0.));
#1384=DIRECTION('center_axis',(0.,0.,-1.));
#1385=DIRECTION('ref_axis',(1.,0.,0.));
#1386=DIRECTION('center_axis',(0.,0.,-1.));
#1387=DIRECTION('ref_axis',(1.,0.,0.));
#1388=DIRECTION('center_axis',(1.,2.62114465796741E-16,0.));
#1389=DIRECTION('ref_axis',(-2.62114465796741E-16,1.,0.));
#1390=DIRECTION('',(2.62114465796741E-16,-1.,0.));
#1391=DIRECTION('',(0.,0.,-1.));
#1392=DIRECTION('center_axis',(0.,0.,1.));
#1393=DIRECTION('ref_axis',(-1.,1.11022302462516E-15,0.));
#1394=DIRECTION('center_axis',(0.,0.,1.));
#1395=DIRECTION('ref_axis',(-1.,1.11022302462516E-15,0.));
#1396=DIRECTION('',(0.,0.,-1.));
#1397=DIRECTION('center_axis',(-1.,4.08898566642915E-16,0.));
#1398=DIRECTION('ref_axis',(-4.08898566642915E-16,-1.,0.));
#1399=DIRECTION('',(4.08898566642915E-16,1.,0.));
#1400=DIRECTION('center_axis',(0.,0.,-1.));
#1401=DIRECTION('ref_axis',(-1.,0.,0.));
#1402=DIRECTION('center_axis',(0.,0.,1.));
#1403=DIRECTION('ref_axis',(1.,0.,0.));
#1404=DIRECTION('center_axis',(1.22464679914735E-16,-1.,0.));
#1405=DIRECTION('ref_axis',(-1.,-1.22464679914735E-16,0.));
#1406=DIRECTION('center_axis',(0.,0.,-1.));
#1407=DIRECTION('ref_axis',(1.,0.,0.));
#1408=DIRECTION('center_axis',(0.,0.,1.));
#1409=DIRECTION('ref_axis',(1.,0.,0.));
#1410=DIRECTION('center_axis',(1.22464679914735E-16,-1.,0.));
#1411=DIRECTION('ref_axis',(-1.,-1.22464679914735E-16,0.));
#1412=DIRECTION('center_axis',(0.,0.,-1.));
#1413=DIRECTION('ref_axis',(1.,0.,0.));
#1414=DIRECTION('center_axis',(0.,0.,1.));
#1415=DIRECTION('ref_axis',(1.,0.,0.));
#1416=DIRECTION('center_axis',(1.22464679914735E-16,-1.,0.));
#1417=DIRECTION('ref_axis',(-1.,-1.22464679914735E-16,0.));
#1418=DIRECTION('center_axis',(0.,0.,-1.));
#1419=DIRECTION('ref_axis',(1.,0.,0.));
#1420=DIRECTION('center_axis',(0.,0.,1.));
#1421=DIRECTION('ref_axis',(1.,0.,0.));
#1422=DIRECTION('center_axis',(1.22464679914735E-16,-1.,0.));
#1423=DIRECTION('ref_axis',(-1.,-1.22464679914735E-16,0.));
#1424=DIRECTION('center_axis',(0.,0.,-1.));
#1425=DIRECTION('ref_axis',(1.,0.,0.));
#1426=DIRECTION('center_axis',(0.,0.,1.));
#1427=DIRECTION('ref_axis',(1.,0.,0.));
#1428=DIRECTION('center_axis',(1.22464679914735E-16,-1.,0.));
#1429=DIRECTION('ref_axis',(-1.,-1.22464679914735E-16,0.));
#1430=DIRECTION('center_axis',(0.,0.,-1.));
#1431=DIRECTION('ref_axis',(1.,0.,0.));
#1432=DIRECTION('center_axis',(0.,0.,1.));
#1433=DIRECTION('ref_axis',(1.,0.,0.));
#1434=DIRECTION('center_axis',(1.22464679914735E-16,-1.,0.));
#1435=DIRECTION('ref_axis',(-1.,-1.22464679914735E-16,0.));
#1436=DIRECTION('center_axis',(0.,0.,-1.));
#1437=DIRECTION('ref_axis',(1.,0.,0.));
#1438=DIRECTION('center_axis',(0.,0.,1.));
#1439=DIRECTION('ref_axis',(1.,0.,0.));
#1440=DIRECTION('center_axis',(1.22464679914735E-16,-1.,0.));
#1441=DIRECTION('ref_axis',(-1.,-1.22464679914735E-16,0.));
#1442=DIRECTION('center_axis',(0.,0.,-1.));
#1443=DIRECTION('ref_axis',(1.,0.,0.));
#1444=DIRECTION('center_axis',(0.,0.,1.));
#1445=DIRECTION('ref_axis',(1.,0.,0.));
#1446=DIRECTION('center_axis',(1.22464679914735E-16,-1.,0.));
#1447=DIRECTION('ref_axis',(-1.,-1.22464679914735E-16,0.));
#1448=DIRECTION('center_axis',(0.,0.,-1.));
#1449=DIRECTION('ref_axis',(1.,0.,0.));
#1450=DIRECTION('center_axis',(0.,0.,1.));
#1451=DIRECTION('ref_axis',(1.,0.,0.));
#1452=DIRECTION('center_axis',(1.22464679914735E-16,-1.,0.));
#1453=DIRECTION('ref_axis',(-1.,-1.22464679914735E-16,0.));
#1454=DIRECTION('center_axis',(0.,0.,-1.));
#1455=DIRECTION('ref_axis',(1.,0.,0.));
#1456=DIRECTION('center_axis',(0.,0.,1.));
#1457=DIRECTION('ref_axis',(1.,0.,0.));
#1458=DIRECTION('center_axis',(1.22464679914735E-16,-1.,0.));
#1459=DIRECTION('ref_axis',(-1.,-1.22464679914735E-16,0.));
#1460=DIRECTION('center_axis',(0.,0.,-1.));
#1461=DIRECTION('ref_axis',(1.,0.,0.));
#1462=DIRECTION('center_axis',(0.,0.,1.));
#1463=DIRECTION('ref_axis',(1.,0.,0.));
#1464=DIRECTION('center_axis',(1.22464679914735E-16,-1.,0.));
#1465=DIRECTION('ref_axis',(-1.,-1.22464679914735E-16,0.));
#1466=DIRECTION('center_axis',(0.,0.,-1.));
#1467=DIRECTION('ref_axis',(1.,0.,0.));
#1468=DIRECTION('center_axis',(0.,0.,1.));
#1469=DIRECTION('ref_axis',(1.,0.,0.));
#1470=DIRECTION('center_axis',(1.22464679914735E-16,-1.,0.));
#1471=DIRECTION('ref_axis',(-1.,-1.22464679914735E-16,0.));
#1472=DIRECTION('center_axis',(0.,0.,-1.));
#1473=DIRECTION('ref_axis',(1.,0.,0.));
#1474=DIRECTION('center_axis',(0.,0.,1.));
#1475=DIRECTION('ref_axis',(1.,0.,0.));
#1476=DIRECTION('center_axis',(1.22464679914735E-16,-1.,0.));
#1477=DIRECTION('ref_axis',(-1.,-1.22464679914735E-16,0.));
#1478=DIRECTION('center_axis',(0.,0.,-1.));
#1479=DIRECTION('ref_axis',(1.,0.,0.));
#1480=DIRECTION('center_axis',(0.,0.,1.));
#1481=DIRECTION('ref_axis',(1.,0.,0.));
#1482=DIRECTION('center_axis',(1.22464679914735E-16,-1.,0.));
#1483=DIRECTION('ref_axis',(-1.,-1.22464679914735E-16,0.));
#1484=DIRECTION('center_axis',(0.,0.,-1.));
#1485=DIRECTION('ref_axis',(1.,0.,0.));
#1486=DIRECTION('center_axis',(0.,0.,1.));
#1487=DIRECTION('ref_axis',(1.,0.,0.));
#1488=DIRECTION('center_axis',(1.22464679914735E-16,-1.,0.));
#1489=DIRECTION('ref_axis',(-1.,-1.22464679914735E-16,0.));
#1490=DIRECTION('center_axis',(0.,0.,-1.));
#1491=DIRECTION('ref_axis',(1.,0.,0.));
#1492=DIRECTION('center_axis',(0.,0.,1.));
#1493=DIRECTION('ref_axis',(1.,0.,0.));
#1494=DIRECTION('center_axis',(1.22464679914735E-16,-1.,0.));
#1495=DIRECTION('ref_axis',(-1.,-1.22464679914735E-16,0.));
#1496=DIRECTION('center_axis',(0.,0.,-1.));
#1497=DIRECTION('ref_axis',(1.,0.,0.));
#1498=DIRECTION('center_axis',(0.,0.,1.));
#1499=DIRECTION('ref_axis',(1.,0.,0.));
#1500=DIRECTION('center_axis',(1.22464679914735E-16,-1.,0.));
#1501=DIRECTION('ref_axis',(-1.,-1.22464679914735E-16,0.));
#1502=DIRECTION('center_axis',(0.,0.,-1.));
#1503=DIRECTION('ref_axis',(1.,0.,0.));
#1504=DIRECTION('center_axis',(0.,0.,1.));
#1505=DIRECTION('ref_axis',(1.,0.,0.));
#1506=DIRECTION('center_axis',(1.22464679914735E-16,-1.,0.));
#1507=DIRECTION('ref_axis',(-1.,-1.22464679914735E-16,0.));
#1508=DIRECTION('center_axis',(0.,0.,-1.));
#1509=DIRECTION('ref_axis',(1.,0.,0.));
#1510=DIRECTION('center_axis',(0.,0.,1.));
#1511=DIRECTION('ref_axis',(1.,0.,0.));
#1512=DIRECTION('center_axis',(1.22464679914735E-16,-1.,0.));
#1513=DIRECTION('ref_axis',(-1.,-1.22464679914735E-16,0.));
#1514=DIRECTION('center_axis',(0.,0.,-1.));
#1515=DIRECTION('ref_axis',(1.,0.,0.));
#1516=DIRECTION('center_axis',(0.,0.,1.));
#1517=DIRECTION('ref_axis',(1.,0.,0.));
#1518=DIRECTION('center_axis',(1.22464679914735E-16,-1.,0.));
#1519=DIRECTION('ref_axis',(-1.,-1.22464679914735E-16,0.));
#1520=DIRECTION('center_axis',(0.,0.,-1.));
#1521=DIRECTION('ref_axis',(1.,0.,0.));
#1522=DIRECTION('center_axis',(0.,0.,-1.));
#1523=DIRECTION('ref_axis',(-1.,0.,0.));
#1524=DIRECTION('',(2.62114465796741E-16,-1.,0.));
#1525=DIRECTION('center_axis',(0.,0.,1.));
#1526=DIRECTION('ref_axis',(1.,0.,0.));
#1527=DIRECTION('',(0.,-1.,0.));
#1528=DIRECTION('center_axis',(0.,0.,1.));
#1529=DIRECTION('ref_axis',(1.,1.11022302462516E-15,0.));
#1530=DIRECTION('',(-6.71013032439656E-16,1.,0.));
#1531=DIRECTION('center_axis',(0.,0.,1.));
#1532=DIRECTION('ref_axis',(1.,0.,0.));
#1533=DIRECTION('',(4.08898566642915E-16,1.,0.));
#1534=DIRECTION('center_axis',(0.,0.,1.));
#1535=DIRECTION('ref_axis',(-1.,1.11022302462516E-15,0.));
#1536=DIRECTION('center_axis',(-1.,-6.71013032439656E-16,0.));
#1537=DIRECTION('ref_axis',(6.71013032439656E-16,-1.,0.));
#1538=DIRECTION('',(0.,0.,1.));
#1539=DIRECTION('',(6.71013032439656E-16,-1.,0.));
#1540=DIRECTION('',(0.,0.,1.));
#1541=DIRECTION('',(-6.71013032439656E-16,1.,0.));
#1542=DIRECTION('',(0.,0.,1.));
#1543=DIRECTION('center_axis',(0.,0.,1.));
#1544=DIRECTION('ref_axis',(1.,1.11022302462516E-15,0.));
#1545=DIRECTION('',(0.,0.,1.));
#1546=DIRECTION('center_axis',(0.,0.,1.));
#1547=DIRECTION('ref_axis',(1.,1.11022302462516E-15,0.));
#1548=DIRECTION('center_axis',(1.,0.,0.));
#1549=DIRECTION('ref_axis',(0.,1.,0.));
#1550=DIRECTION('',(0.,0.,-1.));
#1551=DIRECTION('',(0.,-1.,0.));
#1552=DIRECTION('',(0.,0.,1.));
#1553=DIRECTION('',(0.,1.,0.));
#1554=DIRECTION('center_axis',(0.,-1.,0.));
#1555=DIRECTION('ref_axis',(1.,0.,0.));
#1556=DIRECTION('',(1.,0.,0.));
#1557=DIRECTION('',(0.,0.,-1.));
#1558=DIRECTION('',(-1.,0.,0.));
#1559=DIRECTION('',(1.,0.,0.));
#1560=DIRECTION('',(-1.,0.,0.));
#1561=DIRECTION('',(0.,0.,1.));
#1562=DIRECTION('center_axis',(0.,1.,0.));
#1563=DIRECTION('ref_axis',(-1.,0.,0.));
#1564=DIRECTION('',(-1.,0.,0.));
#1565=DIRECTION('',(0.,0.,-1.));
#1566=DIRECTION('',(1.,0.,0.));
#1567=DIRECTION('',(-1.,0.,0.));
#1568=DIRECTION('',(1.,0.,0.));
#1569=DIRECTION('',(0.,0.,1.));
#1570=DIRECTION('center_axis',(0.,0.,1.));
#1571=DIRECTION('ref_axis',(1.,0.,0.));
#1572=DIRECTION('center_axis',(0.,0.,1.));
#1573=DIRECTION('ref_axis',(1.,0.,0.));
#1574=DIRECTION('center_axis',(0.,0.,1.));
#1575=DIRECTION('ref_axis',(1.,0.,0.));
#1576=DIRECTION('center_axis',(0.,0.,-1.));
#1577=DIRECTION('ref_axis',(-1.,0.,0.));
#1578=DIRECTION('center_axis',(0.,0.,1.));
#1579=DIRECTION('ref_axis',(1.,0.,0.));
#1580=DIRECTION('',(2.62114465796741E-16,-1.,0.));
#1581=DIRECTION('center_axis',(0.,0.,-1.));
#1582=DIRECTION('ref_axis',(1.,0.,0.));
#1583=DIRECTION('',(0.,1.,0.));
#1584=DIRECTION('center_axis',(0.,0.,-1.));
#1585=DIRECTION('ref_axis',(-1.,0.,0.));
#1586=DIRECTION('',(0.,1.,0.));
#1587=DIRECTION('center_axis',(0.,0.,-1.));
#1588=DIRECTION('ref_axis',(1.,0.,0.));
#1589=DIRECTION('center_axis',(0.,0.,1.));
#1590=DIRECTION('ref_axis',(1.,0.,0.));
#1591=DIRECTION('center_axis',(-1.,0.,0.));
#1592=DIRECTION('ref_axis',(0.,-1.,0.));
#1593=DIRECTION('',(0.,0.,1.));
#1594=DIRECTION('',(0.,-1.,0.));
#1595=DIRECTION('center_axis',(-1.,0.,0.));
#1596=DIRECTION('ref_axis',(0.,-1.,0.));
#1597=DIRECTION('',(0.,-1.,0.));
#1598=DIRECTION('',(0.,0.,1.));
#1599=DIRECTION('center_axis',(0.,0.,1.));
#1600=DIRECTION('ref_axis',(1.,0.,0.));
#1601=DIRECTION('center_axis',(0.,0.,1.));
#1602=DIRECTION('ref_axis',(1.,0.,0.));
#1603=DIRECTION('',(2.62114465796741E-16,-1.,0.));
#1604=DIRECTION('center_axis',(0.,0.,1.));
#1605=DIRECTION('ref_axis',(-1.,1.11022302462516E-15,0.));
#1606=DIRECTION('',(4.08898566642915E-16,1.,0.));
#1607=DIRECTION('center_axis',(0.,0.,1.));
#1608=DIRECTION('ref_axis',(1.,0.,0.));
#1609=DIRECTION('',(0.,1.,0.));
#1610=DIRECTION('center_axis',(0.,0.,1.));
#1611=DIRECTION('ref_axis',(1.,0.,0.));
#1612=DIRECTION('',(0.,1.,0.));
#1613=DIRECTION('center_axis',(0.,0.,1.));
#1614=DIRECTION('ref_axis',(1.,0.,0.));
#1615=DIRECTION('center_axis',(0.,0.,1.));
#1616=DIRECTION('ref_axis',(1.,0.,0.));
#1617=DIRECTION('center_axis',(1.,0.,0.));
#1618=DIRECTION('ref_axis',(0.,1.,0.));
#1619=DIRECTION('',(0.,0.,1.));
#1620=DIRECTION('',(0.,-1.,0.));
#1621=DIRECTION('center_axis',(1.,0.,0.));
#1622=DIRECTION('ref_axis',(0.,1.,0.));
#1623=DIRECTION('',(0.,-1.,0.));
#1624=DIRECTION('',(0.,0.,1.));
#1625=DIRECTION('center_axis',(0.,0.,-1.));
#1626=DIRECTION('ref_axis',(-1.,0.,0.));
#1627=DIRECTION('center_axis',(0.,0.,-1.));
#1628=DIRECTION('ref_axis',(1.,0.,0.));
#1629=DIRECTION('',(4.08898566642915E-16,1.,0.));
#1630=DIRECTION('center_axis',(0.,0.,1.));
#1631=DIRECTION('ref_axis',(1.,0.,0.));
#1632=DIRECTION('center_axis',(0.,0.,-1.));
#1633=DIRECTION('ref_axis',(-1.,0.,0.));
#1634=DIRECTION('center_axis',(0.,0.,1.));
#1635=DIRECTION('ref_axis',(1.,0.,0.));
#1636=DIRECTION('center_axis',(0.,0.,-1.));
#1637=DIRECTION('ref_axis',(1.,0.,0.));
#1638=DIRECTION('center_axis',(0.,0.,1.));
#1639=DIRECTION('ref_axis',(-1.,1.11022302462516E-15,0.));
#1640=DIRECTION('',(0.,0.,-1.));
#1641=DIRECTION('',(0.,0.,-1.));
#1642=DIRECTION('center_axis',(-1.,4.08898566642915E-16,0.));
#1643=DIRECTION('ref_axis',(-4.08898566642915E-16,-1.,0.));
#1644=DIRECTION('',(0.,0.,-1.));
#1645=DIRECTION('',(0.,0.,1.));
#1646=DIRECTION('center_axis',(1.,2.62114465796741E-16,0.));
#1647=DIRECTION('ref_axis',(-2.62114465796741E-16,1.,0.));
#1648=DIRECTION('',(0.,0.,1.));
#1649=DIRECTION('',(0.,0.,1.));
#1650=DIRECTION('center_axis',(0.,0.,1.));
#1651=DIRECTION('ref_axis',(0.,-1.,0.));
#1652=DIRECTION('center_axis',(0.,0.,1.));
#1653=DIRECTION('ref_axis',(0.,-1.,0.));
#1654=DIRECTION('center_axis',(0.,0.,1.));
#1655=DIRECTION('ref_axis',(1.,0.,0.));
#1656=DIRECTION('center_axis',(0.,0.,1.));
#1657=DIRECTION('ref_axis',(1.,0.,0.));
#1658=DIRECTION('center_axis',(0.,0.,1.));
#1659=DIRECTION('ref_axis',(1.,0.,0.));
#1660=DIRECTION('center_axis',(0.,0.,1.));
#1661=DIRECTION('ref_axis',(1.,0.,0.));
#1662=CARTESIAN_POINT('',(0.,0.,0.));
#1663=CARTESIAN_POINT('Origin',(-0.249999999999999,-2.23606797749979,0.));
#1664=CARTESIAN_POINT('',(-0.249999999999999,-1.69090473373183,2.312007464129));
#1665=CARTESIAN_POINT('',(-0.249999999999999,-2.23606797749979,2.312007464129));
#1666=CARTESIAN_POINT('',(-0.249999999999999,-1.11803398874989,2.312007464129));
#1667=CARTESIAN_POINT('',(-0.249999999999999,-1.69090473373183,3.2));
#1668=CARTESIAN_POINT('',(-0.249999999999999,-1.69090473373183,0.));
#1669=CARTESIAN_POINT('',(-0.25,-2.03469899493758,3.2));
#1670=CARTESIAN_POINT('',(-0.249999999999998,-1.11803398874989,3.2));
#1671=CARTESIAN_POINT('',(-0.25,-2.23606797749979,3.));
#1672=CARTESIAN_POINT('Ctrl Pts',(-0.25,-2.23606797808439,2.99999999941902));
#1673=CARTESIAN_POINT('Ctrl Pts',(-0.25,-2.13070048689153,3.10471505405306));
#1674=CARTESIAN_POINT('Ctrl Pts',(-0.25,-2.03469899493758,3.2));
#1675=CARTESIAN_POINT('',(-0.25,-2.23606797749979,0.));
#1676=CARTESIAN_POINT('Origin',(-2.,1.03077640640441,0.));
#1677=CARTESIAN_POINT('',(-2.,1.03077640640441,3.));
#1678=CARTESIAN_POINT('',(-2.,-1.03077640640441,3.));
#1679=CARTESIAN_POINT('',(-2.,0.515388203202207,3.));
#1680=CARTESIAN_POINT('',(-2.,1.03077640640441,2.312007464129));
#1681=CARTESIAN_POINT('',(-2.,1.03077640640441,0.));
#1682=CARTESIAN_POINT('',(-2.,-1.03077640640441,2.312007464129));
#1683=CARTESIAN_POINT('',(-2.,-0.396552745953487,2.312007464129));
#1684=CARTESIAN_POINT('',(-2.,-1.03077640640441,0.));
#1685=CARTESIAN_POINT('Origin',(0.,0.,0.));
#1686=CARTESIAN_POINT('',(-0.249999999999999,2.23606797749979,3.));
#1687=CARTESIAN_POINT('',(-0.249999999999999,2.23606797749979,2.312007464129));
#1688=CARTESIAN_POINT('',(-0.249999999999999,2.23606797749979,0.));
#1689=CARTESIAN_POINT('Origin',(0.,0.,2.312007464129));
#1690=CARTESIAN_POINT('Origin',(0.,0.,3.));
#1691=CARTESIAN_POINT('Origin',(0.,0.,3.2));
#1692=CARTESIAN_POINT('',(0.249999999999999,-1.69090473373183,3.2));
#1693=CARTESIAN_POINT('',(0.249999999999999,-2.03469899493758,3.2));
#1694=CARTESIAN_POINT('',(0.249999999999999,-0.845452366865917,3.2));
#1695=CARTESIAN_POINT('',(1.8,-0.981070843517429,3.2));
#1696=CARTESIAN_POINT('Origin',(0.,0.,3.2));
#1697=CARTESIAN_POINT('',(1.8,0.981070843517429,3.2));
#1698=CARTESIAN_POINT('',(1.8,-0.515388203202207,3.2));
#1699=CARTESIAN_POINT('',(0.249999999999999,2.03469899493758,3.2));
#1700=CARTESIAN_POINT('Origin',(0.,0.,3.2));
#1701=CARTESIAN_POINT('',(0.249999999999999,1.69090473373183,3.2));
#1702=CARTESIAN_POINT('',(0.249999999999998,1.11803398874989,3.2));
#1703=CARTESIAN_POINT('',(-0.249999999999999,1.69090473373183,3.2));
#1704=CARTESIAN_POINT('Origin',(1.73472347597681E-17,1.69090473373183,3.2));
#1705=CARTESIAN_POINT('',(-0.249999999999999,2.03469899493758,3.2));
#1706=CARTESIAN_POINT('',(-0.25,0.845452366865917,3.2));
#1707=CARTESIAN_POINT('',(-1.8,0.98107084351743,3.2));
#1708=CARTESIAN_POINT('Origin',(0.,0.,3.2));
#1709=CARTESIAN_POINT('',(-1.8,-0.98107084351743,3.2));
#1710=CARTESIAN_POINT('',(-1.8,0.515388203202207,3.2));
#1711=CARTESIAN_POINT('Origin',(0.,0.,3.2));
#1712=CARTESIAN_POINT('Origin',(1.38777878078145E-16,-1.69090473373183,
3.2));
#1713=CARTESIAN_POINT('Origin',(2.,-1.03077640640441,0.));
#1714=CARTESIAN_POINT('',(2.,-1.03077640640441,3.));
#1715=CARTESIAN_POINT('',(2.,1.03077640640441,3.));
#1716=CARTESIAN_POINT('',(2.,-0.515388203202207,3.));
#1717=CARTESIAN_POINT('',(2.,-1.03077640640441,2.312007464129));
#1718=CARTESIAN_POINT('',(2.,-1.03077640640441,0.));
#1719=CARTESIAN_POINT('',(2.,1.03077640640441,2.312007464129));
#1720=CARTESIAN_POINT('',(2.,-1.4273291523579,2.312007464129));
#1721=CARTESIAN_POINT('',(2.,1.03077640640441,0.));
#1722=CARTESIAN_POINT('Origin',(1.9,-0.515388203202207,3.1));
#1723=CARTESIAN_POINT('Ctrl Pts',(1.8,0.98107084351743,3.2));
#1724=CARTESIAN_POINT('Ctrl Pts',(1.86656847157131,0.998034060804737,3.13343152842869));
#1725=CARTESIAN_POINT('Ctrl Pts',(1.93333347234496,1.0146073984506,3.06666652765504));
#1726=CARTESIAN_POINT('Ctrl Pts',(2.,1.03077640640441,3.));
#1727=CARTESIAN_POINT('Ctrl Pts',(1.8,-0.98107084351743,3.2));
#1728=CARTESIAN_POINT('Ctrl Pts',(1.86656847157131,-0.998034060804737,3.13343152842869));
#1729=CARTESIAN_POINT('Ctrl Pts',(1.93333347234495,-1.0146073984506,3.06666652765505));
#1730=CARTESIAN_POINT('Ctrl Pts',(2.,-1.03077640640441,3.));
#1731=CARTESIAN_POINT('Origin',(0.,0.,3.1));
#1732=CARTESIAN_POINT('Ctrl Pts',(-0.249999999999999,2.03469899493758,3.2));
#1733=CARTESIAN_POINT('Ctrl Pts',(-0.249999999999999,2.13070048692976,3.10471505401509));
#1734=CARTESIAN_POINT('Ctrl Pts',(-0.249999999999998,2.23606797808439,2.99999999941902));
#1735=CARTESIAN_POINT('Ctrl Pts',(-1.8,0.98107084351743,3.2));
#1736=CARTESIAN_POINT('Ctrl Pts',(-1.86656847157137,0.998034060804753,3.13343152842863));
#1737=CARTESIAN_POINT('Ctrl Pts',(-1.9333334723451,1.01460739845063,3.0666665276549));
#1738=CARTESIAN_POINT('Ctrl Pts',(-2.,1.03077640640442,3.));
#1739=CARTESIAN_POINT('Origin',(-1.9,0.515388203202207,3.1));
#1740=CARTESIAN_POINT('Ctrl Pts',(-1.8,-0.98107084351743,3.2));
#1741=CARTESIAN_POINT('Ctrl Pts',(-1.86656847157139,-0.998034060804756,
3.13343152842861));
#1742=CARTESIAN_POINT('Ctrl Pts',(-1.93333347234512,-1.01460739845064,3.06666652765488));
#1743=CARTESIAN_POINT('Ctrl Pts',(-2.,-1.03077640640442,3.));
#1744=CARTESIAN_POINT('Origin',(0.,0.,3.1));
#1745=CARTESIAN_POINT('',(0.25,2.23606797749979,3.));
#1746=CARTESIAN_POINT('Ctrl Pts',(0.25,2.23606797808439,2.99999999941902));
#1747=CARTESIAN_POINT('Ctrl Pts',(0.25,2.13070048685263,3.1047150540917));
#1748=CARTESIAN_POINT('Ctrl Pts',(0.249999999999999,2.03469899493758,3.2));
#1749=CARTESIAN_POINT('Origin',(0.,0.,3.));
#1750=CARTESIAN_POINT('Origin',(0.,0.,0.));
#1751=CARTESIAN_POINT('',(0.249999999999999,2.23606797749979,2.312007464129));
#1752=CARTESIAN_POINT('',(0.25,2.23606797749979,0.));
#1753=CARTESIAN_POINT('Origin',(0.,0.,2.312007464129));
#1754=CARTESIAN_POINT('Origin',(0.,-1.69090473373183,0.));
#1755=CARTESIAN_POINT('',(0.249999999999999,-1.69090473373183,2.312007464129));
#1756=CARTESIAN_POINT('Origin',(0.,-1.69090473373183,2.312007464129));
#1757=CARTESIAN_POINT('',(0.249999999999999,-1.69090473373183,0.));
#1758=CARTESIAN_POINT('Origin',(0.,0.,0.));
#1759=CARTESIAN_POINT('',(0.249999999999999,-2.23606797749979,3.));
#1760=CARTESIAN_POINT('',(0.25,-2.23606797749979,2.312007464129));
#1761=CARTESIAN_POINT('',(0.249999999999999,-2.23606797749979,0.));
#1762=CARTESIAN_POINT('Origin',(0.,0.,2.312007464129));
#1763=CARTESIAN_POINT('Origin',(0.,0.,3.));
#1764=CARTESIAN_POINT('Origin',(0.,0.,0.));
#1765=CARTESIAN_POINT('Origin',(0.,0.,3.));
#1766=CARTESIAN_POINT('Origin',(0.,0.,2.312007464129));
#1767=CARTESIAN_POINT('Origin',(0.249999999999999,-1.69090473373183,0.));
#1768=CARTESIAN_POINT('',(0.249999999999999,-0.845452366865917,2.312007464129));
#1769=CARTESIAN_POINT('Ctrl Pts',(0.249999999999999,-2.03469899493758,3.2));
#1770=CARTESIAN_POINT('Ctrl Pts',(0.249999999999999,-2.13070048692997,3.10471505401489));
#1771=CARTESIAN_POINT('Ctrl Pts',(0.249999999999999,-2.23606797808439,2.99999999941902));
#1772=CARTESIAN_POINT('Origin',(0.,0.,3.1));
#1773=CARTESIAN_POINT('Origin',(0.,0.,3.1));
#1774=CARTESIAN_POINT('Origin',(-0.249999999999999,1.69090473373183,0.));
#1775=CARTESIAN_POINT('',(-0.249999999999999,1.69090473373183,2.312007464129));
#1776=CARTESIAN_POINT('',(-0.249999999999999,0.845452366865917,2.312007464129));
#1777=CARTESIAN_POINT('',(-0.249999999999999,1.69090473373183,3.2));
#1778=CARTESIAN_POINT('Origin',(9.21571846612679E-18,1.69090473373183,0.));
#1779=CARTESIAN_POINT('',(0.249999999999999,1.69090473373183,2.312007464129));
#1780=CARTESIAN_POINT('Origin',(9.21571846612679E-18,1.69090473373183,2.312007464129));
#1781=CARTESIAN_POINT('',(0.249999999999999,1.69090473373183,3.2));
#1782=CARTESIAN_POINT('Origin',(0.249999999999999,2.23606797749979,0.));
#1783=CARTESIAN_POINT('',(0.249999999999999,1.11803398874989,2.312007464129));
#1784=CARTESIAN_POINT('Origin',(-1.38777878078145E-16,1.38777878078145E-16,
2.312007464129));
#1785=CARTESIAN_POINT('Origin',(0.,0.,0.610420377465824));
#1786=CARTESIAN_POINT('',(-1.82946317442557,-2.24044622071823E-16,0.610420377465824));
#1787=CARTESIAN_POINT('Origin',(-1.86696317442557,-2.28637047568625E-16,
0.610420377465824));
#1788=CARTESIAN_POINT('Origin',(0.,0.,0.610420377465824));
#1789=CARTESIAN_POINT('Origin',(0.,0.,0.69989406167635));
#1790=CARTESIAN_POINT('',(-1.82946317442557,-2.24044622071823E-16,0.69989406167635));
#1791=CARTESIAN_POINT('Origin',(-1.86696317442557,-2.28637047568625E-16,
0.69989406167635));
#1792=CARTESIAN_POINT('Origin',(0.,0.,0.69989406167635));
#1793=CARTESIAN_POINT('Origin',(0.,0.,0.789367745886877));
#1794=CARTESIAN_POINT('',(-1.82946317442557,-2.24044622071823E-16,0.789367745886877));
#1795=CARTESIAN_POINT('Origin',(-1.86696317442557,-2.28637047568625E-16,
0.789367745886877));
#1796=CARTESIAN_POINT('Origin',(0.,0.,0.789367745886877));
#1797=CARTESIAN_POINT('Origin',(0.,0.,0.878841430097403));
#1798=CARTESIAN_POINT('',(-1.82946317442557,-2.24044622071823E-16,0.878841430097403));
#1799=CARTESIAN_POINT('Origin',(-1.86696317442557,-2.28637047568625E-16,
0.878841430097403));
#1800=CARTESIAN_POINT('Origin',(0.,0.,0.878841430097403));
#1801=CARTESIAN_POINT('Origin',(0.,0.,0.968315114307929));
#1802=CARTESIAN_POINT('',(-1.82946317442557,-2.24044622071823E-16,0.968315114307929));
#1803=CARTESIAN_POINT('Origin',(-1.86696317442557,-2.28637047568625E-16,
0.968315114307929));
#1804=CARTESIAN_POINT('Origin',(0.,0.,0.968315114307929));
#1805=CARTESIAN_POINT('Origin',(0.,0.,1.05778879851846));
#1806=CARTESIAN_POINT('',(-1.82946317442557,-2.24044622071823E-16,1.05778879851846));
#1807=CARTESIAN_POINT('Origin',(-1.86696317442557,-2.28637047568625E-16,
1.05778879851846));
#1808=CARTESIAN_POINT('Origin',(0.,0.,1.05778879851846));
#1809=CARTESIAN_POINT('Origin',(0.,0.,1.14726248272898));
#1810=CARTESIAN_POINT('',(-1.82946317442557,-2.24044622071823E-16,1.14726248272898));
#1811=CARTESIAN_POINT('Origin',(-1.86696317442557,-2.28637047568625E-16,
1.14726248272898));
#1812=CARTESIAN_POINT('Origin',(0.,0.,1.14726248272898));
#1813=CARTESIAN_POINT('Origin',(0.,0.,1.23673616693951));
#1814=CARTESIAN_POINT('',(-1.82946317442557,-2.24044622071823E-16,1.23673616693951));
#1815=CARTESIAN_POINT('Origin',(-1.86696317442557,-2.28637047568625E-16,
1.23673616693951));
#1816=CARTESIAN_POINT('Origin',(0.,0.,1.23673616693951));
#1817=CARTESIAN_POINT('Origin',(0.,0.,1.32620985115003));
#1818=CARTESIAN_POINT('',(-1.82946317442557,-2.24044622071823E-16,1.32620985115003));
#1819=CARTESIAN_POINT('Origin',(-1.86696317442557,-2.28637047568625E-16,
1.32620985115003));
#1820=CARTESIAN_POINT('Origin',(0.,0.,1.32620985115003));
#1821=CARTESIAN_POINT('Origin',(0.,0.,1.41568353536056));
#1822=CARTESIAN_POINT('',(-1.82946317442557,-2.24044622071823E-16,1.41568353536056));
#1823=CARTESIAN_POINT('Origin',(-1.86696317442557,-2.28637047568625E-16,
1.41568353536056));
#1824=CARTESIAN_POINT('Origin',(0.,0.,1.41568353536056));
#1825=CARTESIAN_POINT('Origin',(0.,0.,1.50515721957109));
#1826=CARTESIAN_POINT('',(-1.82946317442557,-2.24044622071823E-16,1.50515721957109));
#1827=CARTESIAN_POINT('Origin',(-1.86696317442557,-2.28637047568625E-16,
1.50515721957109));
#1828=CARTESIAN_POINT('Origin',(0.,0.,1.50515721957109));
#1829=CARTESIAN_POINT('Origin',(0.,0.,1.59463090378161));
#1830=CARTESIAN_POINT('',(-1.82946317442557,-2.24044622071823E-16,1.59463090378161));
#1831=CARTESIAN_POINT('Origin',(-1.86696317442557,-2.28637047568625E-16,
1.59463090378161));
#1832=CARTESIAN_POINT('Origin',(0.,0.,1.59463090378161));
#1833=CARTESIAN_POINT('Origin',(0.,0.,1.68410458799214));
#1834=CARTESIAN_POINT('',(-1.82946317442557,-2.24044622071823E-16,1.68410458799214));
#1835=CARTESIAN_POINT('Origin',(-1.86696317442557,-2.28637047568625E-16,
1.68410458799214));
#1836=CARTESIAN_POINT('Origin',(0.,0.,1.68410458799214));
#1837=CARTESIAN_POINT('Origin',(0.,0.,1.77357827220267));
#1838=CARTESIAN_POINT('',(-1.82946317442557,-2.24044622071823E-16,1.77357827220267));
#1839=CARTESIAN_POINT('Origin',(-1.86696317442557,-2.28637047568625E-16,
1.77357827220267));
#1840=CARTESIAN_POINT('Origin',(0.,0.,1.77357827220267));
#1841=CARTESIAN_POINT('Origin',(0.,0.,1.86305195641319));
#1842=CARTESIAN_POINT('',(-1.82946317442557,-2.24044622071823E-16,1.86305195641319));
#1843=CARTESIAN_POINT('Origin',(-1.86696317442557,-2.28637047568625E-16,
1.86305195641319));
#1844=CARTESIAN_POINT('Origin',(0.,0.,1.86305195641319));
#1845=CARTESIAN_POINT('Origin',(0.,0.,1.95252564062372));
#1846=CARTESIAN_POINT('',(-1.82946317442557,-2.24044622071823E-16,1.95252564062372));
#1847=CARTESIAN_POINT('Origin',(-1.86696317442557,-2.28637047568625E-16,
1.95252564062372));
#1848=CARTESIAN_POINT('Origin',(0.,0.,1.95252564062372));
#1849=CARTESIAN_POINT('Origin',(0.,0.,2.04199932483425));
#1850=CARTESIAN_POINT('',(-1.82946317442557,-2.24044622071823E-16,2.04199932483425));
#1851=CARTESIAN_POINT('Origin',(-1.86696317442557,-2.28637047568625E-16,
2.04199932483425));
#1852=CARTESIAN_POINT('Origin',(0.,0.,2.04199932483425));
#1853=CARTESIAN_POINT('Origin',(0.,0.,2.13147300904477));
#1854=CARTESIAN_POINT('',(-1.82946317442557,-2.24044622071823E-16,2.13147300904477));
#1855=CARTESIAN_POINT('Origin',(-1.86696317442557,-2.28637047568625E-16,
2.13147300904477));
#1856=CARTESIAN_POINT('Origin',(0.,0.,2.13147300904477));
#1857=CARTESIAN_POINT('Origin',(0.,0.,2.2209466932553));
#1858=CARTESIAN_POINT('',(-1.82946317442557,-2.24044622071823E-16,2.2209466932553));
#1859=CARTESIAN_POINT('Origin',(-1.86696317442557,-2.28637047568625E-16,
2.2209466932553));
#1860=CARTESIAN_POINT('Origin',(0.,0.,2.2209466932553));
#1861=CARTESIAN_POINT('Origin',(0.,0.,2.31042037746582));
#1862=CARTESIAN_POINT('',(-1.82946317442557,-2.24044622071823E-16,2.31042037746582));
#1863=CARTESIAN_POINT('Origin',(-1.86696317442557,-2.28637047568625E-16,
2.31042037746582));
#1864=CARTESIAN_POINT('Origin',(0.,0.,2.31042037746582));
#1865=CARTESIAN_POINT('Origin',(-1.38777878078145E-16,1.38777878078145E-16,
2.312007464129));
#1866=CARTESIAN_POINT('',(-0.249999999999999,1.8066668699536,2.312007464129));
#1867=CARTESIAN_POINT('',(-0.249999999999999,1.69090473373183,2.312007464129));
#1868=CARTESIAN_POINT('',(-0.249999999999999,0.845452366865917,2.312007464129));
#1869=CARTESIAN_POINT('',(-0.249999999999999,-1.8066668699536,2.312007464129));
#1870=CARTESIAN_POINT('Origin',(0.,0.,2.312007464129));
#1871=CARTESIAN_POINT('',(-0.249999999999999,-1.69090473373183,2.312007464129));
#1872=CARTESIAN_POINT('',(-0.249999999999999,-1.11803398874989,2.312007464129));
#1873=CARTESIAN_POINT('',(0.249999999999999,-1.69090473373183,2.312007464129));
#1874=CARTESIAN_POINT('Origin',(0.,-1.69090473373183,2.312007464129));
#1875=CARTESIAN_POINT('',(0.249999999999999,-1.8066668699536,2.312007464129));
#1876=CARTESIAN_POINT('',(0.249999999999999,-0.845452366865917,2.312007464129));
#1877=CARTESIAN_POINT('',(0.249999999999999,1.8066668699536,2.312007464129));
#1878=CARTESIAN_POINT('Origin',(0.,0.,2.312007464129));
#1879=CARTESIAN_POINT('',(0.249999999999999,1.69090473373183,2.312007464129));
#1880=CARTESIAN_POINT('',(0.249999999999999,1.11803398874989,2.312007464129));
#1881=CARTESIAN_POINT('Origin',(9.21571846612679E-18,1.69090473373183,2.312007464129));
#1882=CARTESIAN_POINT('Origin',(0.249999999999999,-1.69090473373183,0.));
#1883=CARTESIAN_POINT('',(0.249999999999999,-1.69090473373183,0.));
#1884=CARTESIAN_POINT('',(0.249999999999999,-1.69090473373183,0.));
#1885=CARTESIAN_POINT('',(0.25,-2.23606797749979,0.));
#1886=CARTESIAN_POINT('',(0.249999999999999,-1.69090473373183,0.));
#1887=CARTESIAN_POINT('',(0.25,-2.23606797749979,0.567617622844452));
#1888=CARTESIAN_POINT('',(0.25,-2.23606797749979,0.));
#1889=CARTESIAN_POINT('',(0.249999999999999,-1.8066668699536,0.567617622844452));
#1890=CARTESIAN_POINT('',(0.249999999999999,-2.23063472406726,0.567617622844452));
#1891=CARTESIAN_POINT('',(0.249999999999999,-1.8066668699536,1.43981254348673));
#1892=CARTESIAN_POINT('Origin',(0.,-1.69090473373183,0.));
#1893=CARTESIAN_POINT('',(-0.249999999999999,-1.69090473373183,0.));
#1894=CARTESIAN_POINT('',(-0.249999999999999,-1.69090473373183,0.));
#1895=CARTESIAN_POINT('Origin',(0.,-1.69090473373183,0.));
#1896=CARTESIAN_POINT('Origin',(-0.249999999999999,-2.23606797749979,0.));
#1897=CARTESIAN_POINT('',(-0.249999999999999,-1.8066668699536,0.567617622844452));
#1898=CARTESIAN_POINT('',(-0.249999999999999,-1.8066668699536,1.43981254348673));
#1899=CARTESIAN_POINT('',(-0.249999999999999,-2.23606797749979,0.567617622844452));
#1900=CARTESIAN_POINT('',(-0.249999999999999,-2.50321634595124,0.567617622844452));
#1901=CARTESIAN_POINT('',(-0.249999999999999,-2.23606797749979,0.));
#1902=CARTESIAN_POINT('',(-0.249999999999999,-2.23606797749979,0.));
#1903=CARTESIAN_POINT('',(-0.249999999999999,-5.,0.));
#1904=CARTESIAN_POINT('Origin',(-2.,-0.600000000000001,0.));
#1905=CARTESIAN_POINT('',(-2.,-0.600000000000001,0.));
#1906=CARTESIAN_POINT('',(2.,-0.600000000000001,0.));
#1907=CARTESIAN_POINT('',(-1.,-0.600000000000001,0.));
#1908=CARTESIAN_POINT('',(-2.,-0.600000000000001,0.56762));
#1909=CARTESIAN_POINT('',(-2.,-0.600000000000001,0.));
#1910=CARTESIAN_POINT('',(-1.72236615706067,-0.600000000000001,0.567617622844452));
#1911=CARTESIAN_POINT('',(-1.,-0.600000000000001,0.567617622844452));
#1912=CARTESIAN_POINT('',(1.72236615706067,-0.600000000000001,0.56762));
#1913=CARTESIAN_POINT('',(2.59568474406282,-0.600000000000001,0.56762));
#1914=CARTESIAN_POINT('',(2.,-0.600000000000001,0.56762));
#1915=CARTESIAN_POINT('',(-1.,-0.600000000000001,0.567617622844452));
#1916=CARTESIAN_POINT('',(2.,-0.600000000000001,0.));
#1917=CARTESIAN_POINT('Origin',(2.,0.600000000000001,0.));
#1918=CARTESIAN_POINT('',(2.,0.600000000000001,0.));
#1919=CARTESIAN_POINT('',(-2.,0.600000000000001,0.));
#1920=CARTESIAN_POINT('',(1.,0.600000000000001,0.));
#1921=CARTESIAN_POINT('',(2.,0.600000000000001,0.56762));
#1922=CARTESIAN_POINT('',(2.,0.600000000000001,0.));
#1923=CARTESIAN_POINT('',(1.72236615706067,0.600000000000001,0.56762));
#1924=CARTESIAN_POINT('',(1.,0.600000000000001,0.567617622844452));
#1925=CARTESIAN_POINT('',(-1.72236615706067,0.600000000000001,0.567617622844452));
#1926=CARTESIAN_POINT('',(-2.59568474406282,0.600000000000001,0.56762));
#1927=CARTESIAN_POINT('',(-2.,0.600000000000001,0.56762));
#1928=CARTESIAN_POINT('',(1.,0.600000000000001,0.567617622844452));
#1929=CARTESIAN_POINT('',(-2.,0.600000000000001,0.));
#1930=CARTESIAN_POINT('Origin',(-2.77555756156289E-16,0.,0.56762));
#1931=CARTESIAN_POINT('Origin',(0.,0.,0.567617622844452));
#1932=CARTESIAN_POINT('Origin',(0.,0.,0.567617622844452));
#1933=CARTESIAN_POINT('Origin',(0.,-2.77036471440269,0.567617622844452));
#1934=CARTESIAN_POINT('',(-0.249999999999999,1.8066668699536,0.567617622844452));
#1935=CARTESIAN_POINT('Origin',(0.,0.,0.567617622844452));
#1936=CARTESIAN_POINT('',(-0.249999999999999,2.23606797749979,0.567617622844452));
#1937=CARTESIAN_POINT('',(-0.249999999999998,-0.539729990335428,0.567617622844452));
#1938=CARTESIAN_POINT('',(-2.,1.03077640640441,0.567617622844452));
#1939=CARTESIAN_POINT('Origin',(0.,0.,0.567617622844452));
#1940=CARTESIAN_POINT('',(-2.,-0.869794153999138,0.567617622844452));
#1941=CARTESIAN_POINT('Origin',(0.,-2.77036471440269,0.567617622844452));
#1942=CARTESIAN_POINT('',(-2.,-1.03077640640441,0.567617622844452));
#1943=CARTESIAN_POINT('',(-2.,-0.869794153999138,0.567617622844452));
#1944=CARTESIAN_POINT('Origin',(0.,0.,0.567617622844452));
#1945=CARTESIAN_POINT('Origin',(0.,0.,0.567617622844452));
#1946=CARTESIAN_POINT('Origin',(-2.,1.03077640640441,0.));
#1947=CARTESIAN_POINT('',(-2.,1.03077640640441,0.));
#1948=CARTESIAN_POINT('',(-2.,1.03077640640441,0.));
#1949=CARTESIAN_POINT('',(-2.,2.85593367333508,0.));
#1950=CARTESIAN_POINT('Origin',(-2.,1.03077640640441,0.));
#1951=CARTESIAN_POINT('',(-2.,-1.03077640640441,0.));
#1952=CARTESIAN_POINT('',(-2.,2.85593367333508,0.));
#1953=CARTESIAN_POINT('',(-2.,-1.03077640640441,0.));
#1954=CARTESIAN_POINT('Origin',(0.,0.,0.));
#1955=CARTESIAN_POINT('',(-0.249999999999999,2.23606797749979,0.));
#1956=CARTESIAN_POINT('Origin',(0.,0.,0.));
#1957=CARTESIAN_POINT('',(-0.249999999999999,1.69090473373183,0.));
#1958=CARTESIAN_POINT('',(-0.25,5.,0.));
#1959=CARTESIAN_POINT('',(0.249999999999999,1.69090473373183,0.));
#1960=CARTESIAN_POINT('Origin',(9.21571846612679E-18,1.69090473373183,0.));
#1961=CARTESIAN_POINT('',(0.249999999999999,2.23606797749979,0.));
#1962=CARTESIAN_POINT('',(0.249999999999999,1.69090473373183,0.));
#1963=CARTESIAN_POINT('',(2.,1.03077640640441,0.));
#1964=CARTESIAN_POINT('Origin',(0.,0.,0.));
#1965=CARTESIAN_POINT('',(2.,-2.85593367333508,0.));
#1966=CARTESIAN_POINT('Origin',(0.,0.,0.));
#1967=CARTESIAN_POINT('',(2.,-1.03077640640441,0.));
#1968=CARTESIAN_POINT('',(2.,-2.85593367333508,0.));
#1969=CARTESIAN_POINT('Origin',(0.,0.,0.));
#1970=CARTESIAN_POINT('Origin',(0.,0.,0.));
#1971=CARTESIAN_POINT('Origin',(2.,-1.03077640640441,0.));
#1972=CARTESIAN_POINT('',(2.,1.03077640640441,0.567617622844452));
#1973=CARTESIAN_POINT('',(2.,1.03077640640441,0.));
#1974=CARTESIAN_POINT('',(2.,-1.90057056040355,0.567617622844452));
#1975=CARTESIAN_POINT('Origin',(2.,-1.03077640640441,0.));
#1976=CARTESIAN_POINT('',(2.,-1.03077640640441,0.567617622844452));
#1977=CARTESIAN_POINT('',(2.,-1.90057056040355,0.567617622844452));
#1978=CARTESIAN_POINT('',(2.,-1.03077640640441,0.));
#1979=CARTESIAN_POINT('Origin',(0.,-2.77036471440269,0.567617622844452));
#1980=CARTESIAN_POINT('',(0.249999999999999,2.23606797749979,0.567617622844452));
#1981=CARTESIAN_POINT('Origin',(0.,0.,0.567617622844452));
#1982=CARTESIAN_POINT('',(0.249999999999999,1.8066668699536,0.567617622844452));
#1983=CARTESIAN_POINT('',(0.249999999999998,-0.26714836845145,0.567617622844452));
#1984=CARTESIAN_POINT('Origin',(0.,0.,0.567617622844452));
#1985=CARTESIAN_POINT('Origin',(0.,-2.77036471440269,0.567617622844452));
#1986=CARTESIAN_POINT('Origin',(0.,0.,0.567617622844452));
#1987=CARTESIAN_POINT('Origin',(0.,0.,0.567617622844452));
#1988=CARTESIAN_POINT('Origin',(9.21571846612679E-18,1.69090473373183,0.));
#1989=CARTESIAN_POINT('',(0.249999999999999,1.69090473373183,3.2));
#1990=CARTESIAN_POINT('',(-0.249999999999999,1.69090473373183,3.2));
#1991=CARTESIAN_POINT('Origin',(0.249999999999999,2.23606797749979,0.));
#1992=CARTESIAN_POINT('',(0.249999999999999,1.8066668699536,1.43981254348673));
#1993=CARTESIAN_POINT('',(0.249999999999999,2.23606797749979,0.));
#1994=CARTESIAN_POINT('Origin',(-0.249999999999999,1.69090473373183,0.));
#1995=CARTESIAN_POINT('',(-0.249999999999999,2.23606797749979,0.));
#1996=CARTESIAN_POINT('',(-0.249999999999999,1.8066668699536,1.43981254348673));
#1997=CARTESIAN_POINT('Origin',(0.,0.,1.43981254348673));
#1998=CARTESIAN_POINT('Origin',(0.,0.,1.43981254348673));
#1999=CARTESIAN_POINT('Origin',(0.,0.,0.));
#2000=CARTESIAN_POINT('Origin',(0.,0.,0.));
#2001=CARTESIAN_POINT('Origin',(0.,0.,0.));
#2002=CARTESIAN_POINT('Origin',(0.,0.,0.));
#2003=UNCERTAINTY_MEASURE_WITH_UNIT(LENGTH_MEASURE(0.01),#2007,
'DISTANCE_ACCURACY_VALUE',
'Maximum model space distance between geometric entities at asserted c
onnectivities');
#2004=UNCERTAINTY_MEASURE_WITH_UNIT(LENGTH_MEASURE(0.01),#2007,
'DISTANCE_ACCURACY_VALUE',
'Maximum model space distance between geometric entities at asserted c
onnectivities');
#2005=(
GEOMETRIC_REPRESENTATION_CONTEXT(3)
GLOBAL_UNCERTAINTY_ASSIGNED_CONTEXT((#2003))
GLOBAL_UNIT_ASSIGNED_CONTEXT((#2007,#2009,#2010))
REPRESENTATION_CONTEXT('','3D')
);
#2006=(
GEOMETRIC_REPRESENTATION_CONTEXT(3)
GLOBAL_UNCERTAINTY_ASSIGNED_CONTEXT((#2004))
GLOBAL_UNIT_ASSIGNED_CONTEXT((#2007,#2009,#2010))
REPRESENTATION_CONTEXT('','3D')
);
#2007=(
LENGTH_UNIT()
NAMED_UNIT(*)
SI_UNIT(.MILLI.,.METRE.)
);
#2008=(
LENGTH_UNIT()
NAMED_UNIT(*)
SI_UNIT($,.METRE.)
);
#2009=(
NAMED_UNIT(*)
PLANE_ANGLE_UNIT()
SI_UNIT($,.RADIAN.)
);
#2010=(
NAMED_UNIT(*)
SI_UNIT($,.STERADIAN.)
SOLID_ANGLE_UNIT()
);
#2011=SHAPE_DEFINITION_REPRESENTATION(#2012,#2013);
#2012=PRODUCT_DEFINITION_SHAPE('',$,#2015);
#2013=SHAPE_REPRESENTATION('',(#1159),#2005);
#2014=PRODUCT_DEFINITION_CONTEXT('part definition',#2019,'design');
#2015=PRODUCT_DEFINITION('CD43NP-4R7MC','CD43NP-4R7MC v2',#2016,#2014);
#2016=PRODUCT_DEFINITION_FORMATION('',$,#2021);
#2017=PRODUCT_RELATED_PRODUCT_CATEGORY('CD43NP-4R7MC v2',
'CD43NP-4R7MC v2',(#2021));
#2018=APPLICATION_PROTOCOL_DEFINITION('international standard',
'automotive_design',2009,#2019);
#2019=APPLICATION_CONTEXT(
'Core Data for Automotive Mechanical Design Process');
#2020=PRODUCT_CONTEXT('part definition',#2019,'mechanical');
#2021=PRODUCT('CD43NP-4R7MC','CD43NP-4R7MC v2',$,(#2020));
#2022=PRESENTATION_STYLE_ASSIGNMENT((#2026));
#2023=PRESENTATION_STYLE_ASSIGNMENT((#2027));
#2024=PRESENTATION_STYLE_ASSIGNMENT((#2028));
#2025=PRESENTATION_STYLE_ASSIGNMENT((#2029));
#2026=SURFACE_STYLE_USAGE(.BOTH.,#2030);
#2027=SURFACE_STYLE_USAGE(.BOTH.,#2031);
#2028=SURFACE_STYLE_USAGE(.BOTH.,#2032);
#2029=SURFACE_STYLE_USAGE(.BOTH.,#2033);
#2030=SURFACE_SIDE_STYLE('',(#2034));
#2031=SURFACE_SIDE_STYLE('',(#2035));
#2032=SURFACE_SIDE_STYLE('',(#2036));
#2033=SURFACE_SIDE_STYLE('',(#2037));
#2034=SURFACE_STYLE_FILL_AREA(#2038);
#2035=SURFACE_STYLE_FILL_AREA(#2039);
#2036=SURFACE_STYLE_FILL_AREA(#2040);
#2037=SURFACE_STYLE_FILL_AREA(#2041);
#2038=FILL_AREA_STYLE('Steel - Satin',(#2042));
#2039=FILL_AREA_STYLE('Gold - Polished',(#2043));
#2040=FILL_AREA_STYLE('Opaque(255,255,255) (1)',(#2044));
#2041=FILL_AREA_STYLE('Nickel - Polished',(#2045));
#2042=FILL_AREA_STYLE_COLOUR('Steel - Satin',#2046);
#2043=FILL_AREA_STYLE_COLOUR('Gold - Polished',#2047);
#2044=FILL_AREA_STYLE_COLOUR('Opaque(255,255,255) (1)',#2048);
#2045=FILL_AREA_STYLE_COLOUR('Nickel - Polished',#2049);
#2046=COLOUR_RGB('Steel - Satin',0.627450980392157,0.627450980392157,0.627450980392157);
#2047=COLOUR_RGB('Gold - Polished',0.913725490196078,0.643137254901961,
0.435294117647059);
#2048=COLOUR_RGB('Opaque(255,255,255) (1)',0.333333333333333,0.333333333333333,
0.333333333333333);
#2049=COLOUR_RGB('Nickel - Polished',0.819607843137255,0.8,0.752941176470588);
ENDSEC;
END-ISO-10303-21;
